<svg version="1.1" id="Layer_1" xmlns="http://www.w3.org/2000/svg" xmlns:xlink="http://www.w3.org/1999/xlink" x="0px" y="0px"
	 width="100%" viewBox="0 0 1236 558" enable-background="new 0 0 1236 558" xml:space="preserve">
<path fill="#FFFFFF" opacity="1.000000" stroke="none" 
	d="
M929.000000,559.000000 
	C620.833374,559.000000 313.166718,558.991943 5.500086,559.093079 
	C1.751081,559.094360 0.904085,558.249451 0.906279,554.500000 
	C1.013384,371.500061 1.013369,188.500061 0.906308,5.500143 
	C0.904114,1.751021 1.750630,0.906117 5.499933,0.907025 
	C414.499908,1.006006 823.499878,1.006002 1232.499878,0.907066 
	C1236.248535,0.906160 1237.096069,1.750211 1237.093872,5.499892 
	C1236.986694,188.499817 1236.986572,371.499817 1237.093628,554.499756 
	C1237.095825,558.248535 1236.250366,559.099182 1232.500122,559.094788 
	C1131.500122,558.975830 1030.500122,559.000000 929.000000,559.000000 
z"/>
<path fill="#22BD9E" opacity="1.000000" stroke="none" 
	d="
M342.696777,23.862862 
	C351.744019,25.298576 359.704285,28.834576 367.607086,32.319004 
	C377.447418,36.657703 387.026062,41.589962 396.884338,46.581093 
	C397.112701,50.498371 394.013123,50.933357 391.732574,51.865417 
	C380.789398,56.337830 369.563110,60.057945 358.442993,64.057014 
	C329.631317,74.418373 300.739746,84.557625 271.880524,94.784538 
	C248.515656,103.064415 225.208435,111.512329 201.847321,119.800964 
	C172.050812,130.372910 142.235260,140.906387 112.516884,151.708359 
	C88.592659,160.404282 64.644760,169.059341 40.521431,177.203522 
	C37.982533,178.060669 35.640781,179.339340 33.148048,180.257584 
	C30.656574,181.175354 28.055759,182.112885 25.864700,179.302917 
	C32.349113,160.487732 41.832912,143.639175 52.665272,127.158730 
	C65.611397,122.359291 78.353371,117.970543 91.057709,113.476685 
	C109.113625,107.089844 127.111526,100.541786 145.181976,94.192680 
	C168.746552,85.913193 192.284927,77.541779 215.728455,68.923019 
	C235.274673,61.737057 255.002228,55.079903 274.623901,48.116711 
	C297.224152,40.096489 319.817810,32.061245 342.696777,23.862862 
z"/>
<path fill="#23C29C" opacity="1.000000" stroke="none" 
	d="
M25.692844,179.168304 
	C28.030361,180.808151 30.268879,180.148193 32.447578,179.234787 
	C48.472614,172.516327 65.097206,167.478516 81.440750,161.652191 
	C104.102112,153.573608 126.609085,145.062668 149.251572,136.930130 
	C163.724533,131.731842 178.533401,127.410683 192.802734,121.720886 
	C205.767532,116.551262 219.200821,112.817917 232.147781,107.604225 
	C246.268433,101.917900 260.791412,97.229309 275.146393,92.126595 
	C289.620544,86.981529 304.105652,81.867447 318.582520,76.730042 
	C339.995117,69.131371 361.422729,61.574314 382.801636,53.881893 
	C387.600586,52.155148 392.722656,51.027573 396.893616,47.214470 
	C410.176361,52.523888 420.677002,62.140263 432.504150,70.357544 
	C431.937469,72.802269 429.965729,73.416489 428.084015,74.036186 
	C400.073303,83.260880 372.489807,93.703407 344.687836,103.517441 
	C320.192963,112.164070 295.706055,120.862358 271.305939,129.788559 
	C269.385071,130.491272 267.659088,131.405167 266.119934,133.355499 
	C259.924927,135.230606 253.928894,134.070831 247.999557,134.395584 
	C246.181152,134.495163 244.307358,134.673477 242.536270,134.367737 
	C232.359039,132.610870 225.849472,137.701523 220.835922,145.727402 
	C220.483032,146.292328 220.012802,146.764511 219.195374,147.460129 
	C198.256104,158.819992 175.744278,165.038605 153.880020,172.924225 
	C123.538795,183.867172 93.171837,194.739151 62.807262,205.616516 
	C49.031563,210.551315 35.285900,215.581497 21.419706,220.265244 
	C19.021660,221.075272 16.628527,221.744217 13.902254,220.213654 
	C15.804397,205.904373 20.550262,192.641541 25.692844,179.168304 
z"/>
<path fill="#27F08F" opacity="1.000000" stroke="none" 
	d="
M522.922363,330.784760 
	C519.645752,349.671906 513.075867,367.266785 504.874817,384.683563 
	C493.614014,389.114899 482.344604,392.649048 471.256104,396.712769 
	C449.685974,404.617706 427.914215,411.963928 406.351105,419.890259 
	C385.247925,427.647461 363.862000,434.613586 342.815765,442.518555 
	C328.618195,447.851135 314.165009,452.437256 299.939606,457.673950 
	C274.312134,467.108002 248.580078,476.248108 222.818466,485.307068 
	C211.030594,489.452209 199.296768,493.744629 187.671814,498.331665 
	C185.675797,499.119293 183.739655,500.226807 181.083008,499.819183 
	C178.291565,497.540039 180.708893,496.234497 181.871338,494.389404 
	C182.304733,493.965637 182.488815,493.810486 182.982300,493.478760 
	C187.702499,491.516785 191.608719,488.975616 195.141937,485.277954 
	C195.540405,484.865112 195.715256,484.715027 196.195633,484.403809 
	C203.144394,482.097290 208.034836,477.522308 212.904434,472.334656 
	C213.326019,471.938904 213.505905,471.791870 213.990341,471.474182 
	C218.574829,470.136780 220.782227,466.391754 224.026459,463.387573 
	C224.421509,462.955750 224.594055,462.796082 225.070526,462.457489 
	C231.124542,460.334076 234.435699,455.250885 239.209274,451.478180 
	C243.159561,447.421722 247.379364,444.223450 251.475830,440.872314 
	C257.217743,436.175018 263.087219,431.671631 267.035461,425.071198 
	C268.754944,422.196686 271.479004,419.734222 275.017426,417.985107 
	C296.375458,409.427368 317.719757,401.907532 339.062378,394.410797 
	C371.873108,382.885742 404.572937,371.051727 437.355682,359.449402 
	C463.391144,350.235046 489.350677,340.804443 515.414062,331.667297 
	C517.715881,330.860291 520.017456,329.551910 522.922363,330.784760 
z"/>
<path fill="#27F78E" opacity="1.000000" stroke="none" 
	d="
M179.699738,498.802094 
	C184.519638,499.160767 188.170135,496.536285 192.172089,495.057434 
	C217.817902,485.580536 243.779984,476.970978 269.413513,467.497650 
	C293.021179,458.773010 316.854156,450.692474 340.441864,441.917786 
	C354.850403,436.557770 369.359894,431.434326 384.017944,426.725891 
	C395.517914,423.031860 406.614502,418.101501 418.008453,414.053009 
	C430.935364,409.459839 444.172974,405.694885 456.936462,400.703033 
	C466.514435,396.957062 476.220123,393.601776 485.893921,390.166290 
	C491.748901,388.086975 497.408600,385.044128 504.278015,384.995911 
	C495.841095,404.455017 484.284576,422.206299 470.564758,438.939331 
	C460.235901,443.133026 449.726807,445.812775 439.622375,449.674652 
	C417.696686,458.054596 395.399536,465.401947 373.355560,473.457092 
	C357.875763,479.113617 342.251709,484.383331 326.773407,490.039856 
	C298.783936,500.268433 270.469208,509.586151 242.675156,520.371643 
	C234.788330,523.432068 226.564453,525.674500 218.338043,529.020691 
	C199.310440,526.206116 181.672913,520.024902 164.421951,512.593628 
	C163.051315,512.003174 161.702942,511.361023 160.114655,510.481720 
	C160.066376,506.234161 163.742798,505.649414 166.198608,504.123993 
	C168.702957,502.568451 171.646988,501.696228 174.661530,500.248657 
	C176.052856,499.773346 177.223190,499.746857 178.463409,498.894165 
	C178.979446,498.698090 179.199387,498.658173 179.699738,498.802094 
z"/>
<path fill="#22B7A0" opacity="1.000000" stroke="none" 
	d="
M342.866455,23.638378 
	C340.322784,26.911505 336.373444,27.491945 332.882874,28.783297 
	C318.756989,34.009251 304.477051,38.801258 290.395660,44.174461 
	C277.888397,48.946995 265.071350,52.902367 252.432220,57.335854 
	C228.345886,65.784714 204.171417,74.001671 180.253983,82.906982 
	C157.916565,91.223999 135.322632,98.793106 112.918571,106.905693 
	C96.422127,112.879105 79.979874,119.002228 63.479603,124.964912 
	C60.379524,126.085182 57.195869,127.133881 53.376228,126.988281 
	C58.293560,117.560104 65.229294,109.286568 72.356155,101.259026 
	C98.483246,71.830025 129.562424,49.066723 165.819290,33.653709 
	C200.355301,18.972242 236.402191,11.378168 274.021912,12.316309 
	C293.196716,12.794479 312.192383,15.103477 330.808075,19.956110 
	C334.779633,20.991400 338.708435,22.190678 342.866455,23.638378 
z"/>
<path fill="#26EA91" opacity="1.000000" stroke="none" 
	d="
M523.445496,330.745056 
	C516.723083,331.946198 510.852234,334.752625 504.764008,336.908203 
	C484.902344,343.940430 464.975128,350.788055 445.129364,357.864532 
	C426.854187,364.381012 408.679047,371.177734 390.410187,377.712219 
	C368.552795,385.530243 346.571930,393.008026 324.779175,401.000214 
	C309.050629,406.768402 292.991791,411.670471 277.692505,418.593781 
	C277.106903,418.858795 276.403015,418.862457 275.375000,418.992126 
	C275.910004,414.466309 278.922760,410.956207 281.793182,407.847412 
	C288.214111,400.893250 291.786591,392.231964 297.186157,384.288025 
	C298.562531,381.724487 300.615479,379.979126 301.463928,377.089294 
	C304.535828,374.827698 305.482941,371.148193 308.718628,369.032532 
	C324.363617,361.887878 340.614929,357.473969 356.276978,351.476501 
	C377.689728,343.276978 399.498260,336.206940 421.009399,328.297211 
	C421.790741,328.009949 422.492950,327.553955 423.423340,326.755371 
	C429.467682,324.887939 435.333954,325.724762 441.111908,325.828033 
	C446.558350,325.925415 450.855591,324.054596 454.425507,320.224487 
	C462.365051,311.706329 469.731140,302.686646 477.247803,293.801514 
	C480.055634,290.482452 482.894989,287.239868 486.749115,284.451294 
	C499.076935,280.749573 510.739868,276.295013 522.516052,272.172913 
	C524.700928,271.408081 526.838745,270.262970 529.528931,271.746948 
	C530.279114,289.763306 528.492249,307.307373 524.696167,324.658173 
	C524.278625,326.566711 524.016479,328.509247 523.445496,330.745056 
z"/>
<path fill="#25DD95" opacity="1.000000" stroke="none" 
	d="
M46.965343,409.666687 
	C36.485744,394.199982 28.608633,377.565887 22.945335,359.501648 
	C22.755785,355.565582 25.874201,355.366486 27.968513,354.700592 
	C40.625710,350.676147 52.783569,345.266022 65.460152,341.317230 
	C75.290077,338.255157 84.825058,334.377930 94.525261,330.960693 
	C97.304985,329.981415 99.365059,328.174561 101.850845,326.107178 
	C103.730316,325.559174 105.234970,325.601929 106.731506,325.601257 
	C147.704773,325.583008 188.678040,325.578217 229.651276,325.615295 
	C232.420319,325.617798 235.456436,325.141907 237.359619,328.645935 
	C236.636688,333.697571 232.265411,335.964172 230.153000,339.851929 
	C228.563034,342.778229 227.177872,346.264404 223.256287,347.867004 
	C213.107422,350.162445 203.892990,354.054047 194.463821,357.274902 
	C170.858383,365.338104 147.384338,373.800201 123.945404,382.309357 
	C98.466850,391.558868 72.818138,400.314636 46.965343,409.666687 
z"/>
<path fill="#76777B" opacity="1.000000" stroke="none" 
	d="
M849.000000,466.017303 
	C755.029785,466.017303 661.559509,466.023956 568.089294,465.968506 
	C566.246826,465.967407 563.250061,467.128876 562.734375,464.903107 
	C561.933289,461.445587 561.766541,457.654846 562.997192,454.121521 
	C563.155212,453.667908 564.429077,453.456329 565.206360,453.396484 
	C566.697327,453.281647 568.202881,453.352631 569.702393,453.352631 
	C788.132874,453.352112 1006.563293,453.347870 1224.993774,453.413757 
	C1227.133423,453.414398 1230.511597,451.972595 1231.251221,454.604950 
	C1232.159668,457.838348 1231.563965,461.522949 1231.418945,465.004150 
	C1231.381714,465.894135 1230.232422,465.997375 1229.379028,466.001831 
	C1227.879517,466.009644 1226.380127,466.016693 1224.880615,466.016693 
	C1099.753784,466.017334 974.626892,466.017303 849.000000,466.017303 
z"/>
<path fill="#24CD99" opacity="1.000000" stroke="none" 
	d="
M9.512263,299.245239 
	C7.535687,287.015503 7.851425,274.967621 8.108664,262.462280 
	C10.666210,259.730194 14.038492,259.770142 16.956228,258.643616 
	C38.347698,250.384323 60.163681,243.297485 81.691780,235.428772 
	C103.857430,227.327042 126.166641,219.634399 148.355576,211.602585 
	C154.697556,209.306961 160.927383,206.138412 168.376572,206.385223 
	C170.243225,207.081970 171.399506,208.364212 173.524078,208.540527 
	C192.859787,208.459641 211.762375,208.596207 230.663940,208.479568 
	C237.148804,208.439575 243.582169,208.786865 250.407288,209.868225 
	C253.372696,211.324097 252.623260,212.831757 250.932220,214.193375 
	C249.094788,215.672867 246.886642,216.466797 244.655426,217.186142 
	C230.076355,221.886475 215.841217,227.554688 201.387665,232.601807 
	C178.139267,240.720032 154.861572,248.767792 131.762253,257.288147 
	C107.714928,266.158173 83.409599,274.288971 59.367901,283.169098 
	C44.848267,288.532074 30.227922,293.628479 15.657319,298.857300 
	C13.806302,299.521576 11.869584,300.237854 9.512263,299.245239 
z"/>
<path fill="#737478" opacity="1.000000" stroke="none" 
	d="
M1128.003418,395.973206 
	C1128.003418,397.633484 1128.134766,398.817413 1127.980957,399.963043 
	C1127.276001,405.214264 1128.316528,409.335724 1134.057373,411.250366 
	C1135.805298,411.833313 1137.982300,413.073486 1137.887939,415.404877 
	C1137.782104,418.019592 1135.317749,418.970490 1133.331055,419.412720 
	C1122.395386,421.846771 1111.405029,422.145233 1100.479126,419.275513 
	C1098.541626,418.766663 1096.472046,417.829620 1096.143066,415.602142 
	C1095.784546,413.173126 1097.983643,411.891541 1099.701782,411.325043 
	C1105.848755,409.298187 1106.347168,404.854614 1106.210205,399.289124 
	C1105.882202,385.968170 1106.163330,372.633362 1106.075073,359.304962 
	C1106.014160,350.113953 1101.784424,346.896240 1092.901611,349.384705 
	C1087.951294,350.771454 1083.272095,353.133453 1078.092041,353.709229 
	C1076.085083,353.932343 1075.757080,355.062988 1075.760132,356.761719 
	C1075.788208,372.923035 1075.850342,389.085052 1075.718750,405.245361 
	C1075.690308,408.738708 1078.550659,408.888855 1080.406372,410.283203 
	C1082.454468,411.822113 1086.005981,412.465332 1085.694580,415.597412 
	C1085.394653,418.614502 1081.960083,418.975739 1079.586914,420.039490 
	C1077.414185,421.013397 1075.077271,421.367279 1072.746216,421.164093 
	C1067.420532,420.699921 1062.119507,420.721161 1056.791260,421.167114 
	C1053.032959,421.481720 1049.546753,420.260559 1046.323486,418.397797 
	C1043.114258,416.543182 1042.817383,413.604004 1046.107666,412.403229 
	C1054.723511,409.258820 1054.203369,402.652618 1054.003174,395.525024 
	C1053.685303,384.204315 1053.954346,372.867920 1053.886475,361.538696 
	C1053.872681,359.226288 1053.694336,356.866241 1053.198120,354.614899 
	C1051.986938,349.119202 1048.834717,347.030334 1043.342407,348.315216 
	C1037.204834,349.751007 1031.539062,352.859131 1025.184448,353.611298 
	C1023.116699,353.856079 1023.164246,355.415436 1023.165344,356.969482 
	C1023.176514,372.964264 1023.266357,388.960022 1023.093079,404.952942 
	C1023.058105,408.183014 1025.470093,408.518738 1027.205566,409.846039 
	C1029.475098,411.581635 1033.554077,412.279541 1033.030762,415.846985 
	C1032.541260,419.183441 1028.643188,420.257507 1025.922852,420.384247 
	C1015.897278,420.851288 1005.750427,422.608612 995.867859,419.283081 
	C994.021179,418.661652 991.834106,417.883331 991.747131,415.464966 
	C991.671326,413.359558 993.458191,412.063293 995.104797,411.484619 
	C1001.186096,409.347443 1001.611328,404.795532 1001.516235,399.247101 
	C1001.233521,382.757355 1001.263611,366.257385 1001.505676,349.766357 
	C1001.579529,344.735382 1000.251099,341.073517 995.720337,338.619904 
	C993.879822,337.623199 991.561951,336.345337 992.348816,333.704987 
	C993.065979,331.298828 995.663208,331.659088 997.512146,331.567535 
	C1007.159912,331.089691 1016.820801,331.011414 1026.468140,331.595459 
	C1028.404907,331.712708 1030.773071,331.876099 1031.472534,334.181152 
	C1032.183716,336.525482 1029.998779,337.610657 1028.669678,339.020477 
	C1026.792114,341.012146 1022.013794,342.237946 1024.526855,345.577545 
	C1026.073608,347.632965 1029.550171,344.518616 1031.849121,343.169617 
	C1036.723999,340.309082 1041.245972,336.824890 1046.203125,334.131256 
	C1058.867432,327.249756 1069.242920,330.941772 1074.650269,344.242004 
	C1075.646851,346.693512 1076.708252,346.275421 1078.320068,345.566162 
	C1082.325195,343.803772 1085.652954,341.003906 1089.168823,338.483276 
	C1094.745728,334.485260 1100.405884,330.771240 1107.725586,330.796509 
	C1118.942139,330.835205 1127.872803,339.281097 1127.967896,350.494019 
	C1128.094971,365.488129 1128.001953,380.484070 1128.003418,395.973206 
z"/>
<path fill="#29FC8C" opacity="1.000000" stroke="none" 
	d="
M218.263000,529.345276 
	C218.624588,527.705017 219.596893,526.582397 221.124420,526.121277 
	C244.912399,518.940613 267.914520,509.503357 291.385681,501.404327 
	C310.623749,494.765991 329.684479,487.465546 348.912231,480.746155 
	C367.031525,474.414215 384.903961,467.399017 403.236603,461.620850 
	C418.709076,456.744141 433.719208,450.418152 449.049927,445.065765 
	C455.722687,442.736115 462.229156,439.671021 469.852600,439.074341 
	C457.754089,455.492584 442.713104,469.303284 426.304169,481.662292 
	C391.550781,507.838104 352.643951,524.561951 309.718781,531.393005 
	C279.313202,536.231689 248.833344,536.104431 218.263000,529.345276 
z"/>
<path fill="#23C79B" opacity="1.000000" stroke="none" 
	d="
M169.250549,206.748840 
	C150.908401,210.705536 134.161453,218.480591 116.748268,224.217651 
	C96.605682,230.853989 76.911934,238.789032 56.721466,245.344620 
	C43.511116,249.633881 30.599215,254.850479 17.597336,259.767273 
	C14.781504,260.832092 11.952068,261.631042 8.587240,261.998901 
	C8.411939,248.007660 10.437714,234.234879 13.437447,220.237305 
	C20.405184,220.706055 26.183403,217.235535 32.197636,215.229202 
	C47.412579,210.153641 62.424660,204.468369 77.505699,198.993439 
	C95.375191,192.506195 113.187714,185.859039 131.106049,179.510147 
	C149.974228,172.824753 169.030411,166.661331 187.823029,159.774750 
	C197.848892,156.100754 208.022385,152.600861 217.639221,147.036774 
	C219.338745,148.991745 217.622345,150.149231 216.595795,151.212585 
	C213.725327,154.185928 210.398926,156.879944 207.924088,160.055283 
	C200.796265,169.200699 191.445816,176.299088 184.759979,185.775909 
	C182.051178,189.615494 178.519409,192.632263 175.292587,195.942673 
	C172.335388,198.976486 169.850311,202.105179 169.250549,206.748840 
z"/>
<path fill="#26E493" opacity="1.000000" stroke="none" 
	d="
M46.705139,410.075012 
	C49.180763,405.912231 53.844704,405.886108 57.517437,404.525299 
	C77.885475,396.978577 98.499664,390.099365 118.983871,382.862244 
	C150.543854,371.712006 182.057159,360.429565 213.622452,349.294434 
	C216.387955,348.318878 218.971649,346.416168 222.589508,346.999207 
	C224.002045,350.305145 221.875214,352.354950 219.864182,354.289520 
	C212.806198,361.079132 208.271805,369.936768 201.253128,376.764252 
	C197.228958,380.678864 193.826218,385.177094 189.226669,388.570770 
	C183.608231,392.716248 179.322250,398.375488 173.647125,403.024963 
	C169.934464,405.102356 166.930634,407.458374 164.571533,411.079468 
	C163.893188,411.940216 163.307892,412.366791 162.304443,412.834656 
	C158.182129,413.188812 155.643463,415.983734 152.866562,417.876892 
	C141.969940,425.305603 130.423676,431.757599 118.778023,437.669922 
	C106.732742,443.785095 94.635963,450.392212 80.814804,453.456970 
	C79.921112,453.477661 79.457680,453.314270 78.964615,452.627563 
	C66.435120,439.643219 55.966866,425.512756 46.705139,410.075012 
z"/>
<path fill="#24DA95" opacity="1.000000" stroke="none" 
	d="
M522.105957,210.239777 
	C522.723755,213.209061 523.209595,215.704193 523.810181,218.600037 
	C517.307678,222.544907 509.983246,224.255005 503.039825,226.960175 
	C481.355286,235.408524 459.164001,242.476456 437.345306,250.584534 
	C426.301910,254.688400 415.156372,258.560364 403.990906,262.344513 
	C401.231873,263.279633 398.939636,264.792114 396.398468,266.825500 
	C382.542603,268.115845 369.062988,267.516968 355.595428,267.330688 
	C351.559113,267.274872 351.273895,265.703400 351.680664,261.741425 
	C352.455017,254.198837 354.923096,246.886353 354.671509,238.744064 
	C354.763580,237.629639 354.886322,237.002029 355.242462,235.935211 
	C356.046509,234.481949 356.667725,233.391647 356.490448,232.217331 
	C355.479248,225.518280 360.034851,219.830978 359.835938,213.232758 
	C359.758179,210.652832 361.810181,209.146637 364.399963,208.704865 
	C365.886902,208.451233 367.389496,208.515854 368.886810,208.515640 
	C417.687714,208.508713 466.488647,208.508560 515.289551,208.517044 
	C516.951233,208.517319 518.624451,208.409653 520.720947,209.008301 
	C521.445190,209.377167 521.709595,209.571411 522.105957,210.239777 
z"/>
<path fill="#727377" opacity="1.000000" stroke="none" 
	d="
M734.561584,415.543884 
	C720.747009,404.979828 717.252197,390.357178 717.538147,374.499054 
	C717.704224,365.289520 720.283997,356.455811 724.772400,348.265961 
	C734.996155,329.611053 752.203369,325.567261 771.397400,332.966217 
	C780.917297,336.635956 780.767456,337.024689 780.767456,326.615143 
	C780.767456,325.281860 780.596985,323.922607 780.795410,322.619537 
	C782.002747,314.690308 779.951660,308.672363 771.644165,305.887939 
	C769.751465,305.253571 767.954590,303.738678 768.209778,301.448273 
	C768.497192,298.867828 771.016052,298.762695 772.880798,298.535004 
	C781.675293,297.461121 790.519287,298.143860 799.342590,298.069275 
	C802.631348,298.041443 802.263062,300.621887 802.266052,302.758209 
	C802.285706,316.924438 802.279236,331.090637 802.279846,345.256866 
	C802.280640,363.922974 802.363770,382.589783 802.201111,401.254456 
	C802.172791,404.505585 803.067749,406.340607 806.000244,407.901031 
	C809.066406,409.532501 814.190979,410.763550 813.547668,414.748840 
	C812.911621,418.688721 807.762329,419.027618 804.145996,420.146027 
	C801.391663,420.997833 798.553040,421.264526 795.737366,420.920044 
	C783.419678,419.413116 771.136719,420.153259 758.830078,421.104370 
	C750.349487,421.759766 742.227234,420.314972 734.561584,415.543884 
z"/>
<path fill="#23D198" opacity="1.000000" stroke="none" 
	d="
M9.158163,299.403809 
	C17.128700,297.739716 24.314819,294.228241 31.786547,291.581329 
	C54.738422,283.450439 77.713860,275.385773 100.649063,267.208252 
	C116.254036,261.644287 131.787720,255.880524 147.389236,250.306763 
	C159.545441,245.963867 171.783493,241.849930 183.937683,237.501495 
	C200.927917,231.422852 217.868698,225.206192 234.843567,219.084366 
	C237.958893,217.960861 241.152130,217.054840 244.279129,215.961823 
	C247.061508,214.989243 250.011353,214.267746 251.949036,211.330139 
	C253.163467,208.588623 255.423340,208.604721 257.564056,208.563263 
	C262.536377,208.466919 267.513550,208.419220 272.483612,208.567871 
	C277.677887,208.723251 279.245911,210.381851 279.452454,215.535233 
	C279.594391,219.075363 278.771454,222.435043 277.291626,226.083344 
	C273.415985,229.172119 269.076080,230.416458 264.890808,231.874893 
	C244.197205,239.085953 223.591843,246.541519 202.945755,253.881973 
	C195.762756,256.435791 188.678406,259.302002 181.383377,261.553711 
	C178.339386,262.493286 175.465973,263.759247 172.997620,266.505005 
	C170.411942,267.632904 168.055527,267.412537 165.734772,267.415863 
	C150.740662,267.437378 135.744949,267.548523 120.753197,267.360352 
	C115.474907,267.294098 111.805969,269.433716 108.077110,273.019470 
	C102.280434,278.593689 97.522736,284.940155 92.246689,291.415710 
	C82.982025,296.445709 73.674278,300.304016 64.052422,303.499603 
	C48.301010,308.730896 32.747330,314.533173 17.129210,320.148132 
	C15.730009,320.651184 14.278751,321.121765 12.459104,320.241455 
	C11.138031,313.269165 10.126361,306.539001 9.158163,299.403809 
z"/>
<path fill="#23C79B" opacity="1.000000" stroke="none" 
	d="
M266.350769,133.276169 
	C265.710449,130.283234 267.573456,129.662354 269.558472,128.963943 
	C291.584320,121.214157 313.620361,113.492134 335.603699,105.623070 
	C363.387848,95.677574 391.119446,85.585342 418.890228,75.602341 
	C423.233307,74.041092 427.843750,73.232140 432.333130,70.802773 
	C442.132111,77.760612 450.585358,85.925156 458.851868,94.744431 
	C459.994141,98.646049 456.754761,98.651718 454.972076,99.315735 
	C442.702728,103.886002 430.477051,108.597496 418.079834,112.799210 
	C401.578827,118.391785 385.213562,124.340759 368.888184,130.414795 
	C366.793060,131.194321 365.251587,132.658554 363.040802,133.971909 
	C360.666748,134.655472 358.664520,134.482300 356.679474,134.483215 
	C328.964264,134.496124 301.249054,134.499344 273.533844,134.477982 
	C271.233582,134.476196 268.864166,134.830612 266.350769,133.276169 
z"/>
<path fill="#737478" opacity="1.000000" stroke="none" 
	d="
M623.159729,379.000000 
	C623.159546,368.505981 622.960938,358.506226 623.250793,348.520630 
	C623.377625,344.152008 621.907227,341.233765 618.254822,339.048828 
	C616.337402,337.901825 613.504639,336.846527 614.214355,334.025055 
	C614.930908,331.176178 618.083252,331.608429 620.186523,331.553009 
	C629.337891,331.311890 638.500610,331.316315 647.654419,331.485626 
	C649.844116,331.526123 652.799866,331.569275 653.465515,334.391418 
	C654.050659,336.872070 651.570496,337.991608 650.002808,339.413788 
	C648.045471,341.189484 643.356445,342.586823 645.495483,345.308807 
	C647.418396,347.755646 650.478027,343.879333 652.645020,342.263275 
	C656.898499,339.091187 660.545044,335.144043 665.489014,332.858612 
	C682.539612,324.976593 698.701599,334.925323 698.879700,353.630554 
	C699.031921,369.619537 699.064453,385.613403 698.817505,401.599976 
	C698.750977,405.906525 699.554688,408.827606 703.884338,410.518738 
	C706.069336,411.372101 709.035339,412.696167 708.716797,415.574493 
	C708.412842,418.320862 705.391724,419.470764 703.072021,419.855042 
	C692.752502,421.564636 682.361206,422.088501 672.091492,419.489716 
	C670.093201,418.984009 667.585022,418.051392 667.324524,415.594543 
	C667.056152,413.063385 669.430969,411.754395 671.340088,411.044586 
	C676.472656,409.136383 677.288757,405.545471 677.155151,400.522797 
	C676.801025,387.206818 677.093384,373.874908 677.009460,360.550079 
	C676.942688,349.942230 671.576477,345.891052 661.509827,349.064789 
	C656.453247,350.658966 651.652344,353.047668 646.661316,354.873657 
	C644.609924,355.624146 645.029358,357.127533 645.026794,358.524414 
	C644.998840,373.848511 645.123169,389.174194 644.918518,404.495605 
	C644.874512,407.791168 646.924683,408.601929 648.995239,409.956909 
	C651.375000,411.514282 655.396179,412.282379 654.737793,415.936127 
	C654.145325,419.224030 650.285217,420.273834 647.541809,420.384125 
	C637.524475,420.786896 627.380920,422.723206 617.513794,419.224243 
	C615.636841,418.558655 613.424072,417.734283 613.287598,415.460297 
	C613.150757,413.181763 615.270630,411.802704 617.048218,411.247498 
	C622.908997,409.417023 623.506287,405.227386 623.243103,399.983521 
	C622.901428,393.171448 623.159668,386.329224 623.159729,379.000000 
z"/>
<path fill="#737478" opacity="1.000000" stroke="none" 
	d="
M964.218384,333.693970 
	C977.037781,341.732788 981.267212,354.087646 982.616455,367.797241 
	C984.028320,382.142731 981.191772,395.666962 973.136108,407.777771 
	C966.876465,417.188416 958.347961,422.435303 946.558472,421.071991 
	C943.758240,420.748199 940.848755,420.379456 938.098022,420.778809 
	C920.517334,423.331268 908.470886,411.238800 903.285828,400.115173 
	C895.984009,384.450378 895.358887,368.261139 901.132690,352.037750 
	C906.952393,335.685516 921.380005,326.813110 939.989197,327.508392 
	C948.385681,327.822144 956.557861,329.010620 964.218384,333.693970 
z"/>
<path fill="#737478" opacity="1.000000" stroke="none" 
	d="
M1202.993896,421.120453 
	C1195.389038,420.426270 1188.281738,420.522888 1181.119141,420.898315 
	C1164.898438,421.748474 1153.973511,415.016693 1148.161743,399.758789 
	C1140.759644,380.324982 1143.929688,361.738434 1155.297241,344.672089 
	C1161.366333,335.560455 1170.963013,331.878052 1181.509766,331.381317 
	C1191.958862,330.889191 1202.465698,330.404388 1212.904785,331.982391 
	C1226.415161,334.024628 1230.278320,343.348175 1222.209106,354.464783 
	C1219.106567,358.738983 1214.979980,361.726654 1210.406006,364.252777 
	C1203.129639,368.271423 1195.246826,371.149078 1188.337524,375.833374 
	C1182.805176,379.584137 1177.477295,383.503784 1175.674561,390.613922 
	C1175.017822,393.204315 1175.740479,394.147156 1178.002563,394.990631 
	C1188.370483,398.856750 1198.774170,399.182800 1209.262573,395.603210 
	C1213.039673,394.314148 1216.204956,392.137299 1217.566650,388.253693 
	C1218.505981,385.575043 1219.739014,386.030029 1221.620361,387.085693 
	C1227.592163,390.436676 1229.812622,397.109406 1227.512695,404.976166 
	C1224.921875,413.837524 1215.955811,422.392761 1202.993896,421.120453 
z"/>
<path fill="#25E194" opacity="1.000000" stroke="none" 
	d="
M397.310883,266.276001 
	C397.393127,262.512695 400.502441,262.116699 402.813629,261.274750 
	C419.894623,255.052185 437.032166,248.983749 454.175293,242.933029 
	C470.414032,237.201508 486.740021,231.711075 502.907562,225.786880 
	C509.594940,223.336456 516.042480,220.247055 523.526001,219.001419 
	C528.140198,236.103561 529.750671,253.508804 529.903076,271.537811 
	C522.666321,272.154633 516.680115,276.202576 510.020416,278.066284 
	C502.559753,280.154022 495.569763,283.792114 487.416626,284.998352 
	C486.963135,281.141144 490.438995,279.804169 492.505829,277.513275 
	C494.139435,275.702576 495.259979,274.236053 492.516846,272.116882 
	C491.992462,271.430237 491.727844,271.003510 491.235657,270.253571 
	C488.492737,268.403656 486.011688,267.653320 482.978180,268.699402 
	C479.305908,269.965759 475.216827,269.085724 471.741638,268.487885 
	C464.245880,267.198364 456.823639,267.599640 449.377319,267.523926 
	C434.410919,267.371704 419.441925,267.492645 404.474060,267.465149 
	C402.163635,267.460907 399.797638,267.722198 397.310883,266.276001 
z"/>
<path fill="#737478" opacity="1.000000" stroke="none" 
	d="
M890.104248,343.220581 
	C893.425903,356.611176 887.933350,367.358582 875.709656,372.061188 
	C874.642822,372.471619 873.388428,372.912964 872.725098,373.742798 
	C871.472839,375.309448 870.354614,376.633362 868.231995,375.329376 
	C866.028564,373.975739 864.899719,371.902832 865.513428,369.411743 
	C866.021545,367.349030 867.146545,365.438171 867.999023,363.460388 
	C869.494446,359.991211 870.626648,356.405365 867.894165,353.114899 
	C865.088867,349.736725 861.622498,351.081146 858.251709,352.288666 
	C850.177979,355.180817 850.170654,355.160522 850.170715,364.013916 
	C850.170776,376.843445 850.304688,389.675232 850.085510,402.501007 
	C850.023499,406.131134 850.999634,408.350830 854.358276,409.952454 
	C856.780823,411.107666 860.444885,412.240814 860.096741,415.460144 
	C859.737244,418.784882 855.954956,420.080750 853.182739,420.261139 
	C843.010498,420.923126 832.715515,422.725403 822.704102,419.118225 
	C821.030457,418.515167 819.040955,417.746643 818.787170,415.650208 
	C818.495422,413.239960 820.494812,411.898804 822.261108,411.274506 
	C827.865967,409.293610 828.616333,405.284821 828.525330,399.951477 
	C828.229797,382.628326 828.323914,365.296143 828.484924,347.969452 
	C828.520325,344.153564 827.857544,341.236267 824.261108,339.247650 
	C822.430725,338.235474 820.347656,336.678772 820.987854,334.149445 
	C821.712952,331.284546 824.577881,331.314850 826.762085,331.270630 
	C835.421509,331.095245 844.088562,331.096222 852.747986,331.271179 
	C854.960266,331.315887 857.918274,331.404053 858.556885,334.170654 
	C859.194641,336.934021 856.457886,337.989716 854.636108,339.355499 
	C852.490112,340.964355 849.528687,342.039368 850.305359,346.020325 
	C854.647217,344.699341 857.949036,342.299683 861.035767,339.519073 
	C862.889465,337.849274 864.658386,336.050354 866.676270,334.603729 
	C875.953369,327.953064 884.947205,331.158356 890.104248,343.220581 
z"/>
<path fill="#24D397" opacity="1.000000" stroke="none" 
	d="
M12.118414,320.400238 
	C21.736094,318.022980 30.531002,313.719421 39.715904,310.565613 
	C53.424580,305.858490 66.997040,300.755310 80.695984,296.018829 
	C84.183784,294.812866 86.447510,291.489563 90.610413,291.001953 
	C91.650543,292.783569 90.375923,293.870300 89.323891,294.769196 
	C82.531525,300.572662 78.509102,308.833466 71.653435,314.566864 
	C69.901054,316.032349 69.298058,317.688904 71.152512,319.998566 
	C73.430023,322.409515 76.071747,321.544312 78.454308,321.547119 
	C129.826828,321.607513 181.199478,321.564484 232.571899,321.659882 
	C235.290741,321.664948 238.750748,320.307892 240.328491,324.564148 
	C239.219452,326.063385 237.953598,326.248169 236.568649,326.233154 
	C184.413910,325.666962 132.257385,326.212097 80.102600,325.940582 
	C86.830307,326.320099 93.584724,325.465485 100.647675,326.737000 
	C101.328651,330.569305 98.316750,331.000946 96.180420,331.760376 
	C81.389923,337.017853 66.323410,341.568878 51.778812,347.423187 
	C42.317692,351.231384 32.211842,353.373901 23.102333,358.796967 
	C17.393589,346.895233 14.737210,333.849091 12.118414,320.400238 
z"/>
<path fill="#23CC9A" opacity="1.000000" stroke="none" 
	d="
M364.357605,133.280655 
	C364.065643,130.623535 365.852325,129.917480 367.567627,129.309799 
	C389.983734,121.368423 412.539886,113.798866 434.771393,105.372299 
	C442.834015,102.316284 451.576752,100.786049 458.923553,95.403687 
	C470.248932,106.196281 479.497101,118.936432 488.438965,132.363174 
	C487.121857,134.785156 484.839447,134.471436 482.722198,134.473099 
	C445.003540,134.502686 407.284851,134.497665 369.566193,134.486725 
	C367.902924,134.486237 366.230499,134.517502 364.357605,133.280655 
z"/>
<path fill="#727377" opacity="1.000000" stroke="none" 
	d="
M574.505371,331.163727 
	C582.619751,331.142151 590.288513,331.031433 597.950806,331.204254 
	C600.491150,331.261566 603.783325,330.960480 604.846619,334.005920 
	C605.911682,337.056641 602.957825,338.374847 600.959045,339.665375 
	C597.922302,341.626068 597.128784,344.211609 597.155457,347.695404 
	C597.294556,365.860138 597.329651,384.027740 597.130676,402.191376 
	C597.089111,405.989044 597.977905,408.385864 601.568970,410.068481 
	C603.956177,411.186981 607.630493,412.284698 607.112854,415.644165 
	C606.645447,418.677246 603.037354,419.136505 600.475220,420.236755 
	C598.098267,421.257416 595.591675,421.351227 593.104980,421.113922 
	C588.609375,420.684906 584.140381,420.666504 579.641968,421.099762 
	C577.842346,421.273041 575.887939,421.290070 574.191040,420.768951 
	C570.910095,419.761353 566.331848,419.227814 565.739929,415.533813 
	C565.195007,412.133148 569.545837,410.940674 572.217773,409.548279 
	C575.015503,408.090302 575.784729,406.187958 575.765259,403.178741 
	C575.645691,384.680420 575.654297,366.180603 575.749756,347.682007 
	C575.767456,344.251007 575.011353,341.565735 571.955444,339.596130 
	C569.954773,338.306641 567.086060,337.053558 568.089417,333.927063 
	C568.954956,331.230133 571.882690,331.739899 574.505371,331.163727 
z"/>
<path fill="#0CDD95" opacity="1.000000" stroke="none" 
	d="
M363.524994,132.949310 
	C405.194336,132.903458 446.395996,132.875427 488.108765,132.755875 
	C508.765839,132.735504 528.911743,132.841599 549.057739,132.867645 
	C568.042114,132.892212 587.026550,132.822388 606.010986,132.826050 
	C607.832336,132.826401 609.653687,133.053375 611.841187,133.398285 
	C612.600952,134.631104 613.186646,135.545959 613.888000,136.735992 
	C614.888184,142.031982 610.565552,144.050827 607.633911,147.140656 
	C606.620178,147.339355 606.102722,147.142517 605.652344,146.116669 
	C605.984802,143.558014 607.759766,142.382782 608.917908,140.787109 
	C610.332214,138.838593 609.839355,137.734558 607.469727,137.489014 
	C605.811401,137.317154 604.141663,137.388504 602.476807,137.388474 
	C482.400543,137.385635 362.324066,137.473755 242.248474,137.195984 
	C233.943451,137.176773 228.795883,140.763046 224.125046,146.481262 
	C210.124069,163.621780 194.729706,179.534668 180.328812,196.318863 
	C177.824295,199.237869 174.243805,201.666046 173.977966,206.584778 
	C173.726181,207.940491 173.325485,208.730835 172.313126,209.676224 
	C170.892700,209.379974 169.499329,209.114319 169.033829,207.320297 
	C167.538513,201.144196 171.622925,197.926514 175.059723,194.475693 
	C183.783279,185.716492 191.798782,176.249786 199.877792,166.972427 
	C205.683167,160.305923 213.134399,155.222992 217.948349,147.336823 
	C220.553452,142.730789 224.212341,139.425003 227.584122,135.850647 
	C229.570923,133.744461 231.693451,132.884140 234.599304,132.925079 
	C244.751038,133.068115 254.906128,132.973907 265.527893,132.951447 
	C298.349670,132.944412 330.703491,132.955780 363.524994,132.949310 
z"/>
<path fill="#27DE9E" opacity="1.000000" stroke="none" 
	d="
M78.764656,452.634399 
	C79.146629,452.473083 79.413559,452.685089 79.848969,452.948547 
	C81.122696,453.334961 82.108322,453.890350 83.201096,454.905334 
	C83.815735,456.906189 82.761475,457.719482 81.392204,458.072693 
	C77.337357,459.118530 75.043701,462.109680 73.024513,465.421143 
	C61.879246,483.699463 50.473183,501.812805 38.987621,519.879700 
	C34.451012,527.015747 30.268000,534.383118 25.574682,541.431702 
	C24.705688,542.736816 23.032429,544.203674 24.297359,545.822937 
	C25.486206,547.344788 27.390976,546.259888 28.982763,545.998169 
	C30.296614,545.782104 31.598354,545.507568 32.996315,544.449890 
	C34.547512,543.814331 35.808121,543.801270 37.460087,543.996216 
	C44.786617,543.712158 51.638390,542.894409 58.380447,539.750854 
	C59.397621,539.232422 60.132771,539.104858 61.258129,539.127136 
	C63.972057,539.927673 66.220978,539.669678 68.709808,538.369385 
	C69.937447,537.954956 70.868965,537.870361 72.142029,537.769043 
	C74.150780,537.840088 75.490768,537.215271 76.808273,535.712036 
	C77.542183,535.353088 78.002632,535.262512 78.835724,535.248291 
	C86.278008,534.805786 92.653862,531.838745 99.579315,529.456909 
	C100.393898,529.114563 100.881126,528.975891 101.759117,528.811401 
	C107.226158,528.293701 111.680939,525.886475 116.176140,523.844238 
	C126.306610,519.241760 137.078125,516.161743 146.876358,510.788208 
	C148.372299,509.967834 150.013580,509.681213 151.938660,510.770325 
	C149.810059,515.923584 144.459778,516.464355 140.398163,518.705566 
	C129.172180,524.900208 117.148865,529.539001 105.144165,533.881226 
	C99.072906,536.077271 92.922043,539.171082 86.027588,538.992554 
	C83.619011,538.930176 81.588875,540.718506 79.269852,541.452209 
	C71.941544,543.770813 64.395508,544.615540 57.001076,546.214844 
	C48.083660,548.143555 38.808483,548.702576 30.139637,552.079102 
	C27.591991,553.071411 24.223475,553.262146 21.454287,551.448425 
	C17.040604,548.557617 16.483404,545.664734 21.101233,539.237122 
	C27.571602,530.230896 33.268543,520.719360 38.930195,511.271637 
	C44.078617,502.680298 49.748917,494.389313 54.760998,485.688416 
	C58.915482,478.476349 63.667099,471.413177 68.195305,464.331909 
	C71.093651,459.799408 74.406731,456.085938 78.764656,452.634399 
z"/>
<path fill="#06E495" opacity="1.000000" stroke="none" 
	d="
M522.386841,209.953598 
	C470.706665,209.959732 419.479218,209.985580 368.251801,210.011887 
	C361.393158,210.015396 362.150818,210.170792 360.761902,216.991562 
	C359.483246,223.270996 358.379425,229.626694 356.384705,235.957901 
	C354.281403,234.411835 354.787170,232.244598 354.623962,229.798981 
	C354.600281,227.934891 354.624023,226.507294 355.032837,224.693329 
	C356.452423,222.099182 356.881226,219.723557 356.626953,216.772980 
	C356.529633,212.321732 356.178711,208.189941 361.352234,206.051086 
	C363.449005,205.557190 365.115631,205.597656 366.776001,205.597290 
	C420.466705,205.585861 474.157440,205.579865 527.848145,205.597504 
	C529.011841,205.597885 530.175110,205.624710 531.815369,205.749741 
	C536.871582,207.134445 541.570801,206.255524 546.676453,206.560944 
	C549.056641,206.572922 550.985657,206.453171 553.076538,207.775909 
	C553.212036,209.122650 552.790161,209.895782 551.274536,209.871918 
	C541.567200,210.211609 532.202393,209.912170 522.386841,209.953598 
z"/>
<path fill="#62E2B9" opacity="1.000000" stroke="none" 
	d="
M152.523590,511.064148 
	C150.526642,510.821381 148.925079,510.981812 147.373901,511.791199 
	C134.284424,518.620911 120.189919,523.094849 106.750763,529.105530 
	C105.338425,529.737183 103.932114,530.072205 101.994492,529.708130 
	C101.362526,527.089050 103.346031,526.649353 105.019272,526.013672 
	C130.431000,516.359131 155.263596,505.415649 178.356842,490.994751 
	C192.176117,482.365082 205.417297,472.860443 218.259125,462.741760 
	C229.281311,454.056854 238.566788,443.524780 249.623047,434.952850 
	C251.042160,433.852570 252.254303,432.315369 254.681030,432.599365 
	C256.447052,435.122681 254.653748,436.510345 253.232452,437.761780 
	C248.755753,441.703552 244.777466,446.154358 240.088455,450.377319 
	C235.094406,454.647095 230.574677,458.932983 225.235352,462.775909 
	C224.949722,462.970551 225.005447,462.990387 224.988480,462.966125 
	C221.604050,465.965851 218.173782,468.913849 214.230545,471.773102 
	C213.947571,471.962738 214.007339,471.985779 213.986389,471.961456 
	C208.504196,476.631195 203.134445,481.451599 196.240509,484.763977 
	C195.951355,484.960968 196.009781,484.973755 195.985413,484.955658 
	C191.928284,487.986237 187.979004,491.156647 183.202454,493.727844 
	C182.938232,493.949707 183.001511,493.994781 182.977936,493.963806 
	C175.122345,500.077118 165.770889,503.523132 157.222885,508.396484 
	C156.239059,508.957397 155.009567,509.110199 154.254761,510.583435 
	C153.651718,510.950623 153.243423,511.016113 152.523590,511.064148 
z"/>
<path fill="#737478" opacity="1.000000" stroke="none" 
	d="
M577.519409,317.671814 
	C574.066284,315.506531 573.291748,312.536530 574.129395,309.244141 
	C574.980225,305.900055 577.920776,304.662506 580.923889,304.246887 
	C585.177856,303.658234 589.507874,303.403687 593.731201,304.680969 
	C597.038269,305.681152 599.237915,307.562225 599.206421,311.377960 
	C599.175842,315.074768 597.220642,317.329498 593.913330,318.316803 
	C588.554382,319.916656 583.158325,319.935181 577.519409,317.671814 
z"/>
<path fill="#36BDA9" opacity="1.000000" stroke="none" 
	d="
M1050.742798,500.392487 
	C1050.026611,498.493286 1049.434204,496.961548 1048.498291,494.542206 
	C1046.840820,499.291107 1045.461548,503.239594 1044.084961,507.188995 
	C1043.594849,508.595428 1043.299683,510.159790 1041.234131,510.015900 
	C1039.442017,509.891083 1039.324463,508.445465 1038.909180,507.218964 
	C1037.311646,502.500488 1035.639893,497.804504 1034.189331,493.041260 
	C1033.902344,492.098785 1032.276245,490.405853 1034.622070,489.862885 
	C1036.379150,489.456238 1036.672119,491.048645 1037.095093,492.338989 
	C1038.437744,496.434845 1039.837769,500.511932 1041.377686,505.076813 
	C1043.773926,500.991150 1044.548096,496.778320 1046.115356,492.886597 
	C1046.632324,491.602661 1046.663696,489.712830 1048.811646,489.915436 
	C1050.540527,490.078491 1050.623047,491.626099 1051.046631,492.832733 
	C1052.419678,496.743195 1053.765259,500.663269 1055.309937,505.124237 
	C1057.767212,500.693817 1058.643066,496.224792 1060.246948,492.043152 
	C1060.635620,491.029907 1060.915649,489.533386 1062.534180,489.991180 
	C1064.517822,490.552246 1063.164185,491.975281 1062.904541,492.811279 
	C1061.378052,497.725830 1059.670532,502.583923 1058.051270,507.470062 
	C1057.624268,508.758545 1057.315308,510.050232 1055.530640,510.031281 
	C1053.721313,510.012054 1053.492310,508.584473 1053.063965,507.373016 
	C1052.289673,505.183411 1051.594604,502.965820 1050.742798,500.392487 
z"/>
<path fill="#36BDA9" opacity="1.000000" stroke="none" 
	d="
M661.171082,498.678711 
	C661.951965,500.921112 662.627563,502.789551 663.658630,505.640839 
	C665.337402,500.805267 666.684143,496.783417 668.146057,492.803894 
	C668.571045,491.646912 668.622498,490.005035 670.404846,489.908417 
	C672.490601,489.795380 672.593384,491.557312 673.070435,492.916992 
	C674.442383,496.827026 675.797119,500.743134 677.562622,505.818207 
	C679.354370,500.519958 680.768921,496.223969 682.276306,491.960846 
	C682.640869,490.929810 683.023621,489.469299 684.615173,490.015686 
	C686.497498,490.661865 685.140808,492.046387 684.878540,492.894073 
	C683.357361,497.809967 681.645752,502.666595 680.029907,507.553650 
	C679.597290,508.862213 679.219604,510.097748 677.444458,510.023621 
	C675.638611,509.948181 675.466431,508.493652 675.041626,507.290192 
	C673.620117,503.263580 672.247498,499.219666 670.549316,494.291870 
	C668.809875,499.339050 667.412537,503.415253 665.997803,507.485443 
	C665.561157,508.741730 665.200012,510.049805 663.424316,510.032196 
	C661.622925,510.014313 661.373352,508.667206 660.954590,507.403687 
	C659.283142,502.360291 657.577637,497.327972 655.946838,492.271515 
	C655.686340,491.463959 654.802551,490.331116 656.426697,489.860596 
	C657.619507,489.515045 658.385986,490.190674 658.745117,491.205475 
	C659.575562,493.551758 660.299072,495.935883 661.171082,498.678711 
z"/>
<path fill="#27DE9E" opacity="1.000000" stroke="none" 
	d="
M605.647827,145.829468 
	C606.220886,146.267975 606.477661,146.577286 607.008057,147.022461 
	C603.376526,154.996719 597.279663,161.048187 591.266785,167.234787 
	C582.843384,175.901550 575.917175,185.952606 566.442200,194.025269 
	C565.713562,194.375748 565.270996,194.518616 564.446289,194.331787 
	C562.688232,192.345718 564.027283,191.056549 565.093811,189.837173 
	C571.000549,183.083771 577.028137,176.437790 583.029541,169.768341 
	C587.020508,165.333130 591.197754,161.051697 594.908691,155.926483 
	C595.181519,155.418030 595.302979,155.222839 595.647217,154.768295 
	C597.385254,153.259811 599.084656,152.184509 600.032532,149.962402 
	C600.866882,148.493164 601.861633,147.599945 603.128601,146.505402 
	C603.997864,145.952866 604.634521,145.730164 605.647827,145.829468 
z"/>
<path fill="#2FBBA6" opacity="1.000000" stroke="none" 
	d="
M996.986450,507.668701 
	C996.941772,509.250641 996.583862,510.052490 995.239075,509.920990 
	C994.120483,509.811584 994.004883,508.977386 994.002075,508.146790 
	C993.983704,502.663208 993.991882,497.179565 993.997681,491.695923 
	C993.998596,490.822144 994.156311,490.059052 995.259399,489.948090 
	C996.422180,489.831085 997.108704,490.556915 997.736450,491.332916 
	C1000.862244,495.196442 1003.966919,499.077026 1007.442139,503.403595 
	C1009.087036,499.797241 1008.011719,496.512817 1008.396118,493.395050 
	C1008.558716,492.076294 1007.720032,489.954010 1010.105286,490.028015 
	C1012.042542,490.088135 1011.511230,491.961334 1011.527466,493.166931 
	C1011.590332,497.819000 1011.568665,502.472565 1011.538330,507.125275 
	C1011.532104,508.073456 1011.835754,509.266754 1010.720093,509.780426 
	C1009.402893,510.386902 1008.572998,509.450226 1007.816345,508.518311 
	C1004.507202,504.442871 1001.192200,500.372101 996.993713,495.210846 
	C996.993713,500.089142 996.993713,503.649963 996.986450,507.668701 
z"/>
<path fill="#36BDA9" opacity="1.000000" stroke="none" 
	d="
M957.675537,509.880890 
	C951.509521,506.862244 949.094543,502.659912 950.270996,497.600342 
	C951.425415,492.635376 956.076599,489.221985 961.374084,489.452271 
	C966.564148,489.677887 970.572327,493.067535 971.565063,498.070801 
	C973.035645,505.481720 967.333008,510.512390 957.675537,509.880890 
z"/>
<path fill="#2FBBA6" opacity="1.000000" stroke="none" 
	d="
M1163.379395,495.194214 
	C1162.745850,490.830719 1164.311646,489.255585 1168.268311,489.793518 
	C1170.388184,490.081818 1172.594360,489.747803 1174.710571,490.051056 
	C1179.255005,490.702332 1182.508911,494.238708 1182.972534,498.705811 
	C1183.478027,503.575226 1181.052490,507.567291 1176.520020,509.267792 
	C1172.824341,510.654266 1168.977661,509.887909 1165.196899,509.967499 
	C1163.249146,510.008545 1163.401123,508.402832 1163.392212,507.097687 
	C1163.366211,503.288208 1163.380615,499.478455 1163.379395,495.194214 
z"/>
<path fill="#2FBBA6" opacity="1.000000" stroke="none" 
	d="
M804.004272,495.337738 
	C806.507629,504.274872 802.491882,509.808594 793.760681,510.026947 
	C785.379211,510.236572 785.379211,510.236572 785.379150,501.699677 
	C785.379150,501.201660 785.291077,500.684692 785.393372,500.208649 
	C786.122131,496.817017 783.350098,492.362671 786.903259,490.097412 
	C791.057129,487.449219 800.405579,490.654236 804.004272,495.337738 
z"/>
<path fill="#2FBBA6" opacity="1.000000" stroke="none" 
	d="
M762.525452,499.177795 
	C757.565979,502.955078 760.070374,506.304260 762.932800,509.465210 
	C759.775513,510.891235 758.881226,508.643585 757.966370,507.048065 
	C756.553101,504.583344 754.698425,503.703949 751.885315,503.918243 
	C748.483704,504.177368 749.894592,506.697052 749.518982,508.357605 
	C749.313904,509.264130 749.015442,509.917389 748.010254,509.936035 
	C746.650208,509.961273 746.412537,508.991089 746.409180,507.942810 
	C746.392212,502.638977 746.392029,497.334961 746.418152,492.031189 
	C746.422241,491.210632 746.520569,490.130035 747.522583,490.076538 
	C751.618103,489.858002 755.856812,488.944977 759.682495,491.095795 
	C762.646790,492.762268 763.380249,495.589233 762.525452,499.177795 
z"/>
<path fill="#2FBBA6" opacity="1.000000" stroke="none" 
	d="
M1124.380737,506.552246 
	C1124.379761,502.435822 1124.232178,498.763580 1124.442749,495.112000 
	C1124.544800,493.340149 1123.230469,490.948608 1125.930542,489.908875 
	C1129.094238,488.690582 1137.451538,490.179840 1139.222778,492.316772 
	C1141.074829,494.551147 1142.140381,497.739288 1140.123535,499.627045 
	C1136.005005,503.482239 1138.265259,506.334442 1140.856079,509.405212 
	C1137.874512,510.980988 1136.920776,508.748230 1136.051147,507.169464 
	C1134.551758,504.447113 1132.474243,503.525818 1129.498535,503.963440 
	C1126.515869,504.402069 1127.909058,506.736145 1127.530151,508.275635 
	C1127.315308,509.148529 1127.112305,509.938873 1126.082886,509.927673 
	C1123.958862,509.904572 1124.548340,508.216461 1124.380737,506.552246 
z"/>
<path fill="#36BDA9" opacity="1.000000" stroke="none" 
	d="
M893.456665,489.715057 
	C896.299866,489.477417 898.547180,489.901855 899.560730,492.536285 
	C900.421570,494.773804 899.241089,496.509827 897.583801,497.723633 
	C895.740417,499.073792 896.195801,500.140503 897.674927,501.124146 
	C898.708740,501.811646 899.510376,504.650452 901.265564,501.790619 
	C901.755371,500.992554 902.549988,500.574127 903.287903,501.257751 
	C903.614746,501.560547 903.431213,502.428070 903.449890,503.040192 
	C903.454651,503.195038 903.392456,503.403503 903.283752,503.502655 
	C900.883789,505.692078 904.887512,509.743622 903.764160,509.277344 
	C899.020813,507.308594 895.003357,511.895691 890.513123,509.766876 
	C886.634644,507.928131 885.546875,504.171814 888.685608,500.970490 
	C890.198242,499.427765 891.262268,498.561462 889.870178,496.121643 
	C888.057922,492.945709 889.818604,490.787445 893.456665,489.715057 
z"/>
<path fill="#36BDA9" opacity="1.000000" stroke="none" 
	d="
M591.903992,493.439880 
	C592.195496,491.886200 591.112244,489.983673 593.250854,489.891357 
	C595.287354,489.803436 594.865723,491.588165 594.873413,492.832977 
	C594.892883,495.994629 595.041809,499.174805 594.764893,502.314575 
	C594.306580,507.510284 591.306152,510.170441 586.295410,510.226257 
	C581.203247,510.283020 578.172241,507.753815 577.669678,502.546631 
	C577.335205,499.080963 577.504150,495.565643 577.475098,492.072327 
	C577.466675,491.060486 577.522705,489.948639 578.866333,489.846405 
	C580.522156,489.720459 580.674011,490.917206 580.682007,492.171692 
	C580.703064,495.500183 580.677734,498.830383 580.778564,502.156616 
	C580.881165,505.543945 582.671509,507.366028 586.105408,507.424957 
	C589.542969,507.483978 591.416992,505.575439 591.742004,502.347229 
	C592.024292,499.543793 591.867004,496.696136 591.903992,493.439880 
z"/>
<path fill="#2FBBA6" opacity="1.000000" stroke="none" 
	d="
M633.296082,501.255310 
	C631.389954,503.121338 629.366455,503.986786 627.160095,503.887146 
	C623.703430,503.730957 620.759216,503.806763 621.426086,508.606659 
	C621.561035,509.577911 620.708801,510.030273 619.751648,509.929718 
	C618.721008,509.821411 618.428162,509.061157 618.427246,508.169983 
	C618.421814,502.681702 618.407715,497.193115 618.480164,491.705719 
	C618.487305,491.165253 618.933044,490.453278 619.392578,490.128296 
	C620.987427,489.000336 630.748291,490.043610 632.414795,491.564636 
	C635.444214,494.329651 635.738403,497.517181 633.296082,501.255310 
z"/>
<path fill="#36BDA9" opacity="1.000000" stroke="none" 
	d="
M837.642029,490.162109 
	C839.464905,491.155823 841.006165,492.085693 838.105469,493.043060 
	C837.579895,493.216522 836.845337,492.730621 836.201050,492.575378 
	C833.390442,491.898163 829.882690,491.112549 829.075806,494.643311 
	C828.203247,498.461639 832.386597,498.011963 834.626709,498.801788 
	C837.546570,499.831299 840.581665,500.621277 840.771484,504.335205 
	C840.916809,507.179260 839.102966,509.128326 836.467163,509.732239 
	C832.861267,510.558441 829.183655,510.637817 826.013733,508.157715 
	C825.734863,507.939453 825.582458,507.246246 825.704773,506.887482 
	C826.060669,505.844391 826.895813,505.923615 827.717468,506.317535 
	C829.864014,507.346741 832.108582,507.893463 834.476562,507.477020 
	C835.993469,507.210175 837.545227,506.635925 837.587036,504.799805 
	C837.620178,503.342407 836.575378,502.408997 835.165527,502.001923 
	C833.571045,501.541595 831.949890,501.164185 830.376709,500.641388 
	C827.675415,499.743622 825.509277,498.296967 825.740295,495.010010 
	C825.982544,491.562042 828.341797,490.319489 831.363586,489.682831 
	C833.404907,489.252716 835.325989,489.659088 837.642029,490.162109 
z"/>
<path fill="#2FBBA6" opacity="1.000000" stroke="none" 
	d="
M1206.095215,491.124969 
	C1209.151245,489.228027 1212.087158,489.211823 1215.059448,490.006073 
	C1216.231079,490.319183 1218.123657,490.456573 1217.592163,492.249664 
	C1217.147095,493.751678 1215.637939,492.939941 1214.606567,492.563416 
	C1213.155640,492.033752 1211.678101,491.877594 1210.203125,492.198090 
	C1208.719604,492.520447 1207.254883,493.080841 1207.041016,494.886200 
	C1206.815552,496.788544 1208.203491,497.469574 1209.674805,497.961548 
	C1211.713745,498.643311 1213.885010,499.033142 1215.800537,499.959534 
	C1219.920898,501.952332 1220.195312,506.759796 1216.259399,508.967438 
	C1212.694092,510.967224 1208.907471,510.523041 1205.259399,508.875763 
	C1204.490723,508.528656 1203.740479,507.949158 1204.028809,507.002136 
	C1204.477295,505.529053 1205.479492,506.201691 1206.390747,506.550873 
	C1208.579590,507.389526 1210.810059,508.052490 1213.178223,507.402557 
	C1214.477173,507.046051 1215.778687,506.589172 1215.922607,504.948486 
	C1216.064697,503.328583 1215.013794,502.532806 1213.674927,502.091736 
	C1212.102539,501.573761 1210.468750,501.239899 1208.901489,500.708435 
	C1203.653564,498.928772 1202.751709,496.178284 1206.095215,491.124969 
z"/>
<path fill="#2FBBA6" opacity="1.000000" stroke="none" 
	d="
M1098.488892,498.435577 
	C1099.959595,501.638794 1101.261230,504.504730 1102.522217,507.388397 
	C1102.888062,508.225220 1103.709106,509.295563 1102.347168,509.857727 
	C1101.346558,510.270721 1100.255981,509.775024 1100.017212,508.629578 
	C1099.162598,504.526947 1096.090332,504.975739 1093.068970,504.970551 
	C1090.047729,504.965393 1086.983398,504.543304 1086.076538,508.580963 
	C1085.816040,509.740845 1084.812012,510.253052 1083.786011,509.872711 
	C1082.337646,509.335754 1083.207764,508.278412 1083.578979,507.453674 
	C1085.889893,502.319427 1088.228638,497.197845 1090.553589,492.069916 
	C1091.033813,491.010895 1091.423340,489.955017 1092.900269,489.863708 
	C1094.653320,489.755219 1095.126953,491.000549 1095.676025,492.206512 
	C1096.567871,494.165527 1097.429688,496.138214 1098.488892,498.435577 
z"/>
<path fill="#2FBBA6" opacity="1.000000" stroke="none" 
	d="
M719.332947,505.099243 
	C717.086792,505.025024 715.245789,505.177521 713.447083,504.967590 
	C710.737976,504.651428 708.980591,505.538086 708.241211,508.241425 
	C707.886597,509.537994 706.948547,510.395721 705.677795,509.847351 
	C704.367249,509.281830 705.250427,508.192047 705.630066,507.351868 
	C707.945007,502.228119 710.285706,497.115997 712.592041,491.988464 
	C713.081482,490.900391 713.527527,489.923248 714.986328,489.863617 
	C716.746887,489.791626 717.169861,491.097076 717.709167,492.279175 
	C719.837097,496.942932 721.987000,501.598236 723.999390,506.311890 
	C724.450134,507.367706 726.094666,508.813965 724.489563,509.722931 
	C722.639099,510.770905 722.115845,508.772369 721.443481,507.479340 
	C721.002930,506.631958 720.876282,505.526489 719.332947,505.099243 
z"/>
<path fill="#12DD94" opacity="1.000000" stroke="none" 
	d="
M154.421570,510.787659 
	C153.906860,509.682465 153.954025,508.597809 155.240219,507.929749 
	C164.232498,503.259125 173.213776,498.567322 182.576477,493.907532 
	C182.973541,495.971710 180.725876,496.634583 180.118378,498.681458 
	C179.980148,498.985931 179.488663,498.989380 179.242950,498.992249 
	C178.353729,499.873016 177.215897,499.937988 176.200256,500.776123 
	C170.630951,503.675018 164.845108,505.560059 160.045898,509.889099 
	C158.159851,510.110199 156.392853,509.545990 154.421570,510.787659 
z"/>
<path fill="#27DE9E" opacity="1.000000" stroke="none" 
	d="
M521.965942,210.071732 
	C525.495789,207.949997 529.344177,209.178604 533.043335,209.069077 
	C538.792786,208.898865 544.555725,209.186371 550.620544,209.547546 
	C541.739929,211.250549 532.481689,209.922241 522.755066,210.614960 
	C522.115601,210.565994 522.035583,210.397934 521.965942,210.071732 
z"/>
<path fill="#06E495" opacity="1.000000" stroke="none" 
	d="
M564.259277,197.690475 
	C561.591980,200.338165 559.151550,202.657867 556.392334,205.100647 
	C555.641479,204.901627 555.343567,204.483810 555.109497,203.584229 
	C555.655518,198.843521 558.891052,196.651428 562.591431,194.462494 
	C563.241333,194.463974 563.499512,194.522537 564.074097,194.822998 
	C564.781250,195.815811 564.813538,196.581665 564.259277,197.690475 
z"/>
<path fill="#14D08D" opacity="1.000000" stroke="none" 
	d="
M555.600220,202.797562 
	C555.950500,203.381744 555.985046,203.908020 556.046509,204.829010 
	C555.841675,206.496704 554.836060,207.160187 553.679199,208.021881 
	C551.494080,208.053757 549.580872,207.982437 547.195557,207.851730 
	C546.242371,207.118668 546.179565,206.375061 546.524658,205.252304 
	C547.263855,204.389023 547.957520,204.186569 549.055786,204.152466 
	C551.757263,205.321548 553.408081,203.565109 555.600220,202.797562 
z"/>
<path fill="#5BE0B5" opacity="1.000000" stroke="none" 
	d="
M564.360107,197.944458 
	C563.946472,197.291183 563.860657,196.563889 563.720093,195.474396 
	C563.594604,194.948792 563.523804,194.785400 563.787903,194.251831 
	C564.569092,193.886597 565.015381,193.891541 565.785522,193.986923 
	C565.328003,195.226471 565.954407,196.903152 564.360107,197.944458 
z"/>
<path fill="#3BDCA2" opacity="1.000000" stroke="none" 
	d="
M614.201599,136.581848 
	C612.862976,136.541443 612.140808,135.706665 612.152832,133.981049 
	C613.798523,133.768936 614.134399,134.912903 614.201599,136.581848 
z"/>
<path fill="#0DE294" opacity="1.000000" stroke="none" 
	d="
M238.784729,450.178284 
	C244.260117,444.457794 249.618576,439.069733 254.981995,433.332245 
	C255.098907,432.777618 255.210846,432.572418 255.561432,432.111023 
	C264.228394,424.319458 270.800140,415.188538 277.859039,406.034607 
	C278.117859,405.512878 278.233337,405.309662 278.560669,404.826385 
	C283.295715,400.227356 287.747009,395.854889 289.908173,389.373596 
	C290.238037,388.386566 290.574768,387.789764 291.223328,386.989807 
	C292.697571,385.840881 293.829437,384.805298 295.249084,383.602173 
	C295.977997,383.317108 296.420929,383.274933 297.435242,383.656433 
	C298.231415,388.270416 294.470612,390.472107 292.787231,393.755219 
	C290.199310,398.802490 287.571991,403.941681 283.204651,407.885712 
	C279.915680,410.855896 279.018280,415.701782 275.142944,418.693176 
	C270.654755,422.303802 267.556305,426.626129 264.265045,430.945221 
	C259.686798,436.953186 252.986496,440.933105 247.269150,445.867676 
	C245.031113,447.799286 242.820953,449.763214 240.297455,451.856812 
	C239.263458,451.763275 238.837601,451.251160 238.784729,450.178284 
z"/>
<path fill="#12DD94" opacity="1.000000" stroke="none" 
	d="
M238.611633,450.015259 
	C239.188782,450.379333 239.475922,450.912750 239.879944,451.723694 
	C236.586899,455.236786 233.151535,458.446136 229.780884,461.722107 
	C228.603027,462.866882 227.229675,463.056458 225.337799,462.979919 
	C228.260895,457.509918 234.236496,454.835876 238.611633,450.015259 
z"/>
<path fill="#12DD94" opacity="1.000000" stroke="none" 
	d="
M196.359207,484.974487 
	C201.296631,480.074707 207.255173,476.006531 213.609192,471.963867 
	C209.827225,478.388733 204.385117,483.122101 196.359207,484.974487 
z"/>
<path fill="#12DD94" opacity="1.000000" stroke="none" 
	d="
M183.328247,493.964050 
	C186.106079,489.680634 190.548141,487.149048 195.593338,484.938049 
	C193.616653,490.302734 188.758133,492.263367 183.328247,493.964050 
z"/>
<path fill="#12DD94" opacity="1.000000" stroke="none" 
	d="
M214.335037,471.972839 
	C216.397964,467.836639 220.222473,465.296295 224.621857,462.978851 
	C222.606888,467.147797 219.807724,470.861115 214.335037,471.972839 
z"/>
<path fill="#27F08F" opacity="1.000000" stroke="none" 
	d="
M176.337952,500.988037 
	C176.067200,499.533020 176.908081,498.953491 178.643127,498.997864 
	C178.936005,500.475952 178.076111,501.033295 176.337952,500.988037 
z"/>
<path fill="#25E692" opacity="1.000000" stroke="none" 
	d="
M423.645782,326.704559 
	C421.202698,331.355286 416.146332,331.316772 412.059998,332.864838 
	C400.186157,337.363098 388.085938,341.246674 376.188232,345.719940 
	C361.038086,351.416138 345.663208,356.511963 330.427063,361.983185 
	C323.462952,364.483978 316.598999,367.263733 309.317841,369.947174 
	C307.143402,367.718048 308.651154,366.005157 309.835022,364.171997 
	C313.626984,358.300201 317.022583,352.220123 319.470215,345.225281 
	C323.139130,342.358917 323.858459,338.265045 325.419586,334.663391 
	C326.536591,332.086304 327.413025,329.396973 329.762238,327.062134 
	C333.011658,325.834320 335.968323,325.579254 338.989990,325.581024 
	C365.130371,325.596405 391.270752,325.584290 417.411133,325.604156 
	C419.394287,325.605682 421.424622,325.395966 423.645782,326.704559 
z"/>
<path fill="#0DE294" opacity="1.000000" stroke="none" 
	d="
M424.469635,327.029907 
	C395.229523,327.030670 366.457764,326.994415 337.686218,327.053345 
	C335.067963,327.058716 332.450989,327.675323 329.403198,328.024200 
	C328.568115,327.538635 328.367279,326.965057 328.483032,325.863770 
	C328.948059,324.861053 329.412567,324.444122 330.443939,324.000549 
	C336.547729,323.313324 342.212402,323.632385 347.869873,323.606537 
	C380.009674,323.459778 412.150574,323.829285 444.685486,323.290649 
	C449.111481,320.886871 452.764801,318.206421 455.012482,313.576904 
	C455.337982,313.124054 455.481659,312.957672 455.877319,312.593048 
	C456.802734,311.960968 457.489532,311.541138 457.946350,310.482727 
	C458.430054,309.183319 459.124786,308.426758 460.250092,307.623779 
	C461.209778,306.948547 461.865448,306.407257 462.630188,305.488464 
	C473.254211,294.772339 482.665619,283.413361 492.752197,272.203491 
	C496.704041,273.094910 497.100708,274.825134 494.245239,277.458771 
	C491.841217,279.675964 489.607941,282.078247 487.155975,284.698700 
	C480.559113,292.281799 474.204834,299.656311 467.616547,306.815491 
	C463.246765,311.563873 460.010498,317.217560 455.085266,321.547516 
	C451.201843,324.961578 447.264832,327.315216 441.877930,327.069397 
	C436.242249,326.812256 430.585571,327.016266 424.469635,327.029907 
z"/>
<path fill="#3BDCA2" opacity="1.000000" stroke="none" 
	d="
M319.329529,344.778107 
	C319.414398,352.766693 314.418427,358.537048 310.844788,364.934692 
	C310.065216,366.330383 308.647491,367.363373 308.954956,369.598175 
	C305.964691,371.464905 306.401886,376.028534 302.382690,376.931152 
	C301.836578,377.105743 301.633209,377.239655 301.106140,377.204590 
	C299.348907,373.352570 303.395569,371.644104 303.915100,368.281433 
	C304.108887,367.711792 304.199493,367.488342 304.469879,366.951324 
	C308.770691,360.990845 311.626862,354.592682 315.310486,348.685608 
	C316.257599,347.166840 316.693939,345.242920 319.329529,344.778107 
z"/>
<path fill="#0DE294" opacity="1.000000" stroke="none" 
	d="
M300.529144,376.846588 
	C301.092316,376.846893 301.280853,376.877716 301.754700,376.940186 
	C302.521027,380.034576 300.368805,381.755676 298.309753,383.840729 
	C297.998779,383.998779 297.984253,383.984192 297.976929,383.976868 
	C297.457245,383.368622 297.141724,382.685608 297.135010,381.507141 
	C297.753754,379.421692 298.702118,377.972351 300.529144,376.846588 
z"/>
<path fill="#06E495" opacity="1.000000" stroke="none" 
	d="
M101.465240,327.028503 
	C91.561287,327.040741 82.126228,327.040741 72.691177,327.040741 
	C72.691483,326.334930 72.691788,325.629150 72.692101,324.923340 
	C128.206940,324.923340 183.721786,324.923340 239.715393,324.877502 
	C243.374573,327.549744 239.768738,328.851715 238.656586,330.948761 
	C238.109711,331.211548 237.867981,331.263336 237.293213,331.152100 
	C236.732330,326.956940 233.971954,326.972626 230.923935,326.976105 
	C187.927368,327.025116 144.930756,327.013306 101.465240,327.028503 
z"/>
<path fill="#12DD94" opacity="1.000000" stroke="none" 
	d="
M236.615128,331.026581 
	C237.140076,330.991882 237.319977,330.994690 237.769745,330.998779 
	C239.323685,333.071198 237.712738,334.460602 236.770691,335.905121 
	C224.480255,354.750549 210.380524,372.140320 194.277908,387.850983 
	C187.800262,394.170959 181.849426,401.197052 173.130676,405.137878 
	C172.555084,404.551056 172.485718,404.077026 172.774933,403.279633 
	C177.591690,397.379456 182.547318,391.933716 188.316315,387.739166 
	C192.558823,384.654510 195.955475,380.799164 199.292175,377.147156 
	C202.135925,374.034668 205.897171,371.272278 207.712204,367.541199 
	C211.454865,359.847565 219.194901,355.358582 222.861145,347.320404 
	C227.215363,344.737122 228.223145,340.008148 230.848099,336.531281 
	C232.458206,334.398651 233.800247,332.246704 236.615128,331.026581 
z"/>
<path fill="#06E495" opacity="1.000000" stroke="none" 
	d="
M172.470276,210.002655 
	C172.242828,209.388184 172.483841,208.778320 173.011139,207.989639 
	C174.428146,206.662613 175.959564,206.412079 177.867340,205.881744 
	C210.351105,205.364944 242.376816,205.665054 274.401978,205.634628 
	C276.073639,205.633041 277.712280,205.860947 279.685120,206.746002 
	C281.231232,207.578491 281.883881,208.597214 282.563416,210.133255 
	C282.999359,211.344803 283.128876,212.180222 283.247955,213.423279 
	C283.330994,215.111282 283.262482,216.390976 282.885193,217.998108 
	C282.801025,219.260498 281.340759,218.825409 281.555420,220.115570 
	C281.850342,221.083237 281.855743,221.746918 281.599609,222.732605 
	C281.058228,223.826492 280.434052,224.508499 280.331268,225.794586 
	C280.228271,228.083588 280.437134,230.043259 279.837646,232.318329 
	C277.001617,235.310364 278.487640,239.611313 275.506836,242.381546 
	C272.504517,241.758331 272.743835,239.534058 272.655975,237.617020 
	C272.491241,234.021164 273.875641,230.811050 275.735718,227.342316 
	C277.087402,222.680740 278.422546,218.418564 278.043640,213.848572 
	C277.873688,211.798782 277.389465,210.033997 275.054504,210.093719 
	C267.626190,210.283722 260.164001,209.232788 252.385101,210.817078 
	C225.665878,209.138611 199.292450,210.373474 172.470276,210.002655 
z"/>
<path fill="#62E2B9" opacity="1.000000" stroke="none" 
	d="
M275.602356,242.229156 
	C276.916229,239.057053 275.255157,235.450623 278.606964,233.015656 
	C280.709747,233.709915 280.780701,235.153473 280.523773,236.729584 
	C278.693665,247.957199 274.794128,258.618408 271.406433,269.407715 
	C270.443604,272.474213 267.534790,273.861176 264.340057,274.223969 
	C262.183899,274.468750 260.012482,274.370697 257.847321,274.370880 
	C212.362198,274.374664 166.876892,274.435883 121.392242,274.289124 
	C116.101593,274.272034 112.426788,275.842194 108.988747,280.019470 
	C99.259018,291.841187 88.979202,303.206726 78.900902,314.738739 
	C77.889587,315.895935 75.790413,317.065186 76.755020,318.806030 
	C77.627487,320.380646 79.811485,319.598145 81.407455,319.599213 
	C131.557693,319.632538 181.707962,319.626312 231.858215,319.626709 
	C233.690933,319.626740 235.524094,319.601044 237.356308,319.637970 
	C245.029160,319.792542 247.332458,323.672028 243.437592,330.216095 
	C230.149048,352.543121 213.582962,372.225189 195.179993,390.501465 
	C177.427963,408.131256 157.156570,422.399994 135.819824,435.102814 
	C119.790520,444.645874 102.617508,452.117157 85.258606,458.984680 
	C79.996628,461.066437 76.509567,464.270691 73.564781,469.114166 
	C62.666363,487.039398 51.400249,504.742859 40.306370,522.550842 
	C37.136253,527.639526 33.992523,532.737732 30.573269,537.668518 
	C27.151148,542.603394 27.225603,542.655029 32.935848,545.116333 
	C30.638479,548.059937 27.323359,547.948853 24.413271,547.679688 
	C20.971172,547.361328 21.969002,544.734741 23.161934,542.816650 
	C25.787292,538.595337 28.741604,534.575012 31.291111,530.310913 
	C44.710541,507.866516 59.523319,486.284210 72.522903,463.580475 
	C74.848732,459.518433 78.752617,457.458191 83.086060,455.554169 
	C86.596001,452.085052 91.107506,451.149475 95.152168,449.415955 
	C115.045914,440.889496 134.266022,431.223145 151.882446,418.499237 
	C154.921051,416.304535 158.047729,414.018646 161.855362,412.259949 
	C162.598984,411.761688 163.051865,411.488159 163.748901,411.111206 
	C166.671005,408.691986 168.353699,405.079071 172.699661,404.772217 
	C199.210052,384.599274 220.165405,359.541534 238.016266,331.354797 
	C238.476776,328.905182 241.029221,327.772186 240.413345,325.064911 
	C239.106674,321.859253 236.537155,323.061096 234.612457,323.058777 
	C182.046005,322.995087 129.479462,323.010559 76.912933,323.009460 
	C75.249855,323.009430 73.576561,323.082062 71.926369,322.926392 
	C69.993828,322.744080 68.669098,321.957428 69.851578,319.330719 
	C69.442360,316.439423 71.262596,315.051575 72.722412,313.495880 
	C84.085106,301.386932 94.856461,288.747925 105.540588,276.054321 
	C110.009117,270.745331 114.787704,268.406311 121.793655,268.443665 
	C167.079269,268.685059 212.366806,268.569672 257.653717,268.565552 
	C266.454620,268.564728 266.698517,268.477478 268.927246,260.022583 
	C270.109314,255.538315 272.156586,251.301270 272.753052,246.216461 
	C273.106049,244.302185 273.904602,243.184570 275.602356,242.229156 
z"/>
<path fill="#0DE294" opacity="1.000000" stroke="none" 
	d="
M161.747101,412.020325 
	C157.596130,417.903503 150.703125,420.675385 144.886887,424.825043 
	C130.865524,434.828735 115.230698,442.001007 99.547783,448.954468 
	C94.448219,451.215454 89.467079,453.894928 83.571594,455.169556 
	C82.091278,454.893890 80.611420,455.329559 80.072624,453.359375 
	C90.749207,449.285156 100.936676,444.343292 111.268692,439.667114 
	C125.390114,433.275848 138.235962,424.815704 151.603287,417.185333 
	C154.754150,415.386780 157.021332,411.626434 161.747101,412.020325 
z"/>
<path fill="#0DE294" opacity="1.000000" stroke="none" 
	d="
M172.995422,404.656006 
	C169.419327,405.789642 167.989426,409.673340 164.317291,410.903076 
	C165.222260,406.762543 168.340195,404.466583 172.625885,402.988708 
	C172.993576,403.426666 172.995102,403.873810 172.995422,404.656006 
z"/>
<path fill="#06E495" opacity="1.000000" stroke="none" 
	d="
M396.529907,265.976624 
	C419.469330,265.975739 441.941345,265.877045 464.410614,266.078583 
	C469.305542,266.122467 474.186340,267.280518 479.084076,267.832825 
	C480.205780,267.959351 481.696228,268.132355 482.461700,267.551788 
	C486.733185,264.312195 489.655518,267.548859 492.923218,269.819824 
	C491.285950,271.605469 489.268219,271.491913 487.266083,271.491974 
	C443.342865,271.493103 399.419617,271.502930 355.496399,271.479584 
	C348.180756,271.475677 346.978546,269.930786 348.217896,261.895630 
	C348.846100,260.009277 350.484131,259.021545 350.085083,256.834045 
	C349.715729,253.860001 350.561859,251.420868 351.177795,248.577454 
	C352.341827,246.767792 352.857544,245.166199 352.674164,242.981049 
	C352.661469,241.247894 352.745728,239.915726 353.493652,238.301819 
	C354.190582,237.617844 354.713409,237.484756 355.645691,237.767822 
	C356.068909,246.648956 354.454224,255.081268 352.410522,263.448212 
	C351.718719,266.280334 353.728607,265.964264 355.320709,265.972382 
	C363.269928,266.012970 371.219513,265.993927 379.168945,265.993469 
	C384.799805,265.993164 390.430634,265.989044 396.529907,265.976624 
z"/>
<path fill="#23CC9A" opacity="1.000000" stroke="none" 
	d="
M356.000977,237.661774 
	C355.548523,237.981628 355.093353,237.980957 354.296875,237.978455 
	C352.174255,234.642319 351.377930,231.407791 355.374207,228.721893 
	C355.890869,230.939209 355.937347,233.045578 355.987762,235.606522 
	C355.993927,236.487823 355.996124,236.914536 356.000977,237.661774 
z"/>
<path fill="#FDFDFD" opacity="1.000000" stroke="none" 
	d="
M780.736145,348.805573 
	C780.765442,361.062378 780.890381,372.897064 780.727234,384.727753 
	C780.580811,395.337860 778.335327,397.278625 767.839478,396.752533 
	C765.846313,396.652618 763.822937,396.526550 761.850586,396.746002 
	C750.306030,398.030640 742.168030,395.401520 738.316528,378.103699 
	C736.206421,368.626678 737.674316,359.203400 742.127258,350.417572 
	C746.616089,341.560944 754.370911,337.689636 764.057129,340.062012 
	C770.146606,341.553406 775.754395,344.411224 780.736145,348.805573 
z"/>
<path fill="#24D397" opacity="1.000000" stroke="none" 
	d="
M275.563599,241.897339 
	C275.428009,242.792801 274.910492,243.605316 274.241974,244.667618 
	C272.274506,250.186676 270.356720,255.421707 268.828461,260.787323 
	C267.389862,265.838196 265.665192,267.424683 260.331329,267.460236 
	C232.901001,267.643097 205.469772,267.568420 178.038864,267.508820 
	C176.539291,267.505585 175.043732,267.377930 173.343521,266.290588 
	C173.551010,261.537598 177.657623,261.478455 180.475616,260.444977 
	C202.474884,252.376999 224.559021,244.538940 246.649826,236.722824 
	C256.130035,233.368576 265.688263,230.234985 275.606750,227.000565 
	C276.734741,229.979279 274.450165,232.271500 274.172668,234.919525 
	C273.938904,237.150314 272.920349,239.822189 275.563599,241.897339 
z"/>
<path fill="#06E495" opacity="1.000000" stroke="none" 
	d="
M172.530350,265.973267 
	C202.116119,265.971619 231.233917,265.904327 260.350311,266.075592 
	C264.661957,266.100922 266.679657,264.460083 267.764282,260.483765 
	C269.200470,255.218628 270.733429,249.949814 273.712555,245.002991 
	C273.634430,252.447632 270.430328,259.247833 268.391388,266.357422 
	C267.429504,269.711334 265.028748,270.169739 261.858368,270.163635 
	C214.244995,270.071899 166.631271,270.147125 119.018105,270.012878 
	C114.619545,270.000488 111.612450,271.393036 108.756401,274.697113 
	C96.066338,289.378082 83.151711,303.864929 70.142883,318.708527 
	C66.118172,317.784485 68.555046,316.113281 69.766205,314.780853 
	C72.869278,311.367126 76.750137,308.593536 79.054474,304.536743 
	C82.010727,299.332184 87.003372,296.071411 90.839882,291.297363 
	C96.354340,284.420410 101.127121,277.396454 107.497162,271.582092 
	C111.195992,268.205902 114.518501,265.808716 119.842758,265.891449 
	C137.245422,266.161835 154.654999,265.987915 172.530350,265.973267 
z"/>
<path fill="#FEFEFE" opacity="1.000000" stroke="none" 
	d="
M917.929688,355.188354 
	C922.465576,340.306976 931.019043,334.647552 945.121887,336.959320 
	C953.053650,338.259460 958.351624,342.935822 961.083008,350.373383 
	C964.152588,358.731934 964.457397,367.307159 961.822144,375.821411 
	C958.377625,386.950500 949.678223,392.625183 937.402527,392.081909 
	C927.709717,391.652954 920.520203,385.128082 917.973694,374.370209 
	C916.497070,368.132111 916.377808,361.866821 917.929688,355.188354 
z"/>
<path fill="#FDFDFD" opacity="1.000000" stroke="none" 
	d="
M1163.084961,360.380920 
	C1167.309937,341.114685 1179.837036,337.132843 1198.179199,341.217743 
	C1201.500610,341.957489 1204.375366,343.805450 1204.973633,347.667725 
	C1205.615479,351.812958 1204.442749,355.290222 1200.746216,357.538269 
	C1195.361328,360.813049 1189.885132,363.937378 1184.474854,367.171143 
	C1175.168701,372.733704 1171.347046,377.278259 1167.304199,387.811707 
	C1162.245972,379.037048 1161.430542,370.124481 1163.084961,360.380920 
z"/>
<path fill="#5BE0B5" opacity="1.000000" stroke="none" 
	d="
M355.868835,228.434982 
	C352.389282,230.937668 354.643768,234.358246 353.947754,237.536850 
	C353.918793,239.313721 353.882019,240.650833 353.828125,242.388077 
	C352.643005,244.153549 353.339386,246.048019 352.246582,247.772858 
	C351.665649,250.740219 351.312042,253.433914 350.948730,256.536011 
	C350.963654,257.845184 351.007965,258.749634 350.230408,259.794525 
	C349.739197,261.006348 349.395538,261.952179 349.216949,262.928192 
	C348.046967,269.322510 348.685181,270.073334 355.237549,270.075989 
	C400.836243,270.094391 446.434937,270.110077 492.497437,270.159851 
	C492.969025,270.593903 492.976807,270.994781 493.009644,271.697021 
	C492.954651,273.159546 492.925934,274.314697 492.052032,275.259888 
	C482.601898,285.480438 473.163513,295.711853 463.471619,306.170197 
	C462.922119,306.400391 462.622925,306.400696 461.999237,306.091461 
	C461.020691,303.227570 462.852203,301.781708 464.238220,300.184509 
	C470.346985,293.144958 476.677490,286.299835 482.707001,279.191681 
	C483.633118,278.099854 485.431580,276.957886 484.803528,275.504822 
	C484.032898,273.721954 481.878937,274.507416 480.327209,274.505981 
	C439.378174,274.468292 398.429138,274.476929 357.480072,274.475128 
	C355.482697,274.475037 353.482452,274.541016 351.488678,274.416046 
	C346.172241,274.082794 344.235077,272.106781 344.729950,266.804382 
	C345.208313,261.678925 346.208130,256.591095 347.177521,251.543060 
	C348.934723,242.392395 350.234070,233.177567 351.755157,223.994415 
	C352.125000,221.761871 352.283752,219.219894 355.674438,218.697281 
	C357.217804,220.204941 356.996796,221.688828 356.233582,223.604172 
	C355.969208,225.352661 355.931213,226.694885 355.868835,228.434982 
z"/>
<path fill="#5BE0B5" opacity="1.000000" stroke="none" 
	d="
M177.223206,206.590698 
	C176.167633,207.993546 175.028946,207.819901 173.621048,207.820557 
	C171.991119,205.376633 172.160309,203.552826 174.242035,201.213409 
	C190.680649,182.739868 207.008667,164.164963 223.141922,145.424286 
	C228.674652,138.997406 234.632050,135.834976 243.687637,135.859940 
	C364.007477,136.191803 484.328552,136.080338 604.649292,136.079636 
	C605.815796,136.079620 606.982483,136.093216 608.148804,136.080536 
	C609.529846,136.065536 610.904175,136.198227 611.612061,137.567902 
	C612.381409,139.056534 611.315002,140.092682 610.426819,141.077347 
	C609.099243,142.549072 607.713562,143.968338 606.158325,145.684296 
	C605.431824,146.242752 604.899658,146.526840 604.066406,146.833847 
	C602.196533,144.356659 604.803406,142.560333 605.008240,140.395233 
	C603.281311,138.989182 601.371887,139.523514 599.605774,139.523132 
	C480.462463,139.496857 361.319153,139.522736 242.175934,139.420822 
	C236.550934,139.416016 232.441345,141.077408 228.751617,145.430237 
	C213.674438,163.217026 198.148712,180.618057 182.646713,198.036819 
	C180.869781,200.033463 179.218597,202.117126 177.970596,204.984833 
	C177.761887,205.697495 177.631699,205.967514 177.223206,206.590698 
z"/>
<path fill="#FCFEFD" opacity="1.000000" stroke="none" 
	d="
M177.270538,205.908539 
	C175.043411,203.832596 176.465073,202.706635 177.589081,201.421326 
	C186.332336,191.423370 195.017349,181.374405 203.774048,171.388275 
	C212.427048,161.520401 221.226013,151.778992 229.775146,141.822556 
	C232.043045,139.181351 234.456100,137.969879 237.919357,137.971268 
	C360.138458,138.020157 482.357544,138.009918 604.576660,138.049347 
	C605.954407,138.049805 607.964539,137.206573 608.601074,138.919083 
	C609.181091,140.479233 607.236938,141.366989 606.344055,142.483139 
	C605.411926,143.648346 604.224304,144.613312 603.816772,146.507904 
	C602.904114,147.667786 602.042847,148.478821 601.030762,149.549210 
	C599.665466,151.604767 597.886414,152.882553 596.339233,154.807831 
	C596.149719,155.068420 596.056091,155.069595 596.068970,155.114609 
	C589.633301,162.712494 583.010315,170.120575 576.343384,177.470993 
	C568.766968,185.824005 561.388611,194.346176 553.890503,202.764709 
	C552.993774,203.771515 552.116211,204.749390 550.410889,205.203217 
	C549.342285,205.301514 548.609009,205.287537 547.517578,205.356110 
	C542.774231,207.268341 538.233154,206.399811 533.249023,206.137283 
	C476.408295,205.913162 420.050049,206.037735 363.260437,205.998993 
	C356.870667,206.709793 356.161224,207.846207 356.602020,216.435730 
	C356.662476,217.332733 356.549011,217.824966 355.985382,218.487625 
	C351.800018,224.129410 352.527008,230.763107 351.511993,236.802185 
	C350.139618,244.967575 348.167816,253.045639 347.273041,261.296448 
	C347.094330,262.944305 346.584717,264.557983 346.429840,266.206421 
	C345.863770,272.231781 346.368073,272.772430 352.477417,272.774658 
	C396.101654,272.790710 439.725922,272.795258 483.350159,272.802765 
	C484.182678,272.802917 485.016602,272.761658 485.847321,272.798309 
	C486.812256,272.840881 487.989380,272.553375 488.571899,273.546783 
	C489.380096,274.924896 488.043640,275.644012 487.331970,276.453247 
	C479.653351,285.184906 471.935822,293.882355 464.261963,302.618164 
	C463.515411,303.468079 462.989716,304.512054 462.393616,305.800354 
	C462.148926,306.652405 461.834930,307.145233 461.269562,307.820831 
	C460.375641,308.726501 459.665619,309.404419 458.895508,310.375580 
	C458.671234,311.558411 458.215820,312.234619 457.103546,312.777222 
	C456.816101,312.914368 456.436859,313.045319 456.300781,313.192749 
	C451.562561,320.374329 445.273895,322.679169 436.741699,322.562561 
	C403.102692,322.102905 369.453186,322.460114 335.808868,322.279205 
	C330.775970,322.252136 327.557068,323.761383 325.783234,328.502136 
	C320.743744,341.970764 311.954437,353.456970 305.477722,366.665955 
	C305.264709,367.049561 304.986908,367.367249 304.933228,367.571320 
	C302.323730,372.139313 299.119415,376.108215 296.903625,381.067078 
	C296.713318,381.608093 296.607727,381.812805 296.275574,382.275818 
	C294.320740,383.366119 293.435150,384.894928 292.591309,386.871246 
	C292.049652,387.592987 291.634216,388.006134 291.095581,388.685547 
	C287.534790,394.384064 283.843140,399.632629 279.528809,404.852905 
	C279.364227,405.155975 279.066589,405.445679 278.966858,405.627808 
	C271.260864,414.651550 263.788147,423.606171 255.914108,432.579712 
	C255.568390,432.645721 255.245117,432.758118 255.116028,432.870483 
	C248.862946,436.161377 244.045837,441.124359 239.400085,445.909698 
	C232.420151,453.099365 224.707535,459.342743 216.959885,465.546356 
	C200.503311,478.723267 183.023300,490.394409 164.545685,500.623810 
	C145.288742,511.284637 125.189377,519.958435 104.571472,527.534119 
	C103.655533,527.870667 102.858955,528.532043 101.797211,529.316772 
	C101.233208,529.643188 100.878777,529.694946 100.267944,529.829712 
	C93.332588,532.190918 86.483070,533.910583 79.422211,536.194214 
	C78.634125,536.330627 78.199120,536.367188 77.465942,536.543701 
	C75.708076,537.052429 74.411682,537.778503 72.808907,538.508057 
	C71.562416,538.558228 70.634087,538.630615 69.364120,538.777832 
	C66.849411,538.970215 64.854721,539.929199 62.412926,540.312256 
	C61.363583,540.474792 60.613438,540.515625 59.508957,540.688110 
	C52.416615,542.389404 45.487331,543.053284 38.461464,545.206787 
	C36.671501,545.317139 35.271652,545.327881 33.458771,545.425964 
	C32.888828,545.457275 32.735149,545.364624 32.574547,545.350464 
	C24.024242,544.595337 24.133116,544.666321 28.789078,537.455933 
	C44.087021,513.765076 59.137081,489.916229 73.602638,465.706299 
	C75.757195,462.100342 78.626541,459.549103 82.449066,458.182068 
	C99.628799,452.038177 116.037842,444.189819 131.978348,435.409882 
	C147.232864,427.007843 161.491867,417.051147 175.104599,406.171814 
	C201.729767,384.892853 223.477539,359.343414 241.516235,330.534454 
	C242.390533,329.138153 243.425842,327.713196 243.798447,326.160522 
	C244.471497,323.355988 243.782593,321.121307 240.207550,321.159637 
	C238.874924,321.173950 237.541916,321.146698 236.209076,321.146698 
	C183.894211,321.147064 131.579361,321.148407 79.264496,321.149475 
	C78.431458,321.149506 77.595009,321.196228 76.766212,321.136688 
	C75.645851,321.056183 74.229568,321.566528 73.519203,320.449799 
	C72.564743,318.949310 74.053352,317.941284 74.835251,317.037018 
	C81.027336,309.875763 87.340828,302.819641 93.555885,295.678040 
	C98.787727,289.666168 104.056999,283.679749 109.074486,277.491364 
	C111.671127,274.288788 114.452553,272.710449 118.792068,272.724670 
	C165.108566,272.876648 211.425720,272.818268 257.742706,272.825439 
	C268.132599,272.827057 268.311646,272.902985 271.666107,263.219086 
	C275.010468,253.564194 278.210663,243.835281 279.124878,233.278900 
	C279.243591,230.788712 279.535492,228.602142 279.930328,226.030853 
	C278.934174,224.614059 280.288330,224.186783 280.829498,223.272217 
	C281.190308,222.292252 281.285583,221.533661 281.362244,220.392578 
	C281.352234,219.806351 281.360901,219.602585 281.431793,219.099304 
	C281.676056,217.484268 281.858093,216.168732 282.039612,214.453247 
	C282.838715,213.316025 283.043701,212.370407 282.971252,211.032898 
	C282.829498,210.129395 282.792511,209.515198 282.603210,208.606064 
	C282.018097,207.049103 280.779144,206.987625 279.343994,206.505066 
	C277.160919,205.866989 275.325470,206.001953 273.505585,206.001541 
	C243.644455,205.994781 213.783325,206.005127 183.922226,205.978195 
	C181.761734,205.976242 179.629990,206.232407 177.270538,205.908539 
z"/>
<path fill="#62E2B9" opacity="1.000000" stroke="none" 
	d="
M79.336700,536.515381 
	C82.674698,532.689819 87.844193,533.235535 92.191933,531.604919 
	C94.453941,530.756592 96.805786,529.195984 99.760208,529.698669 
	C99.086906,532.563965 96.465874,531.970642 94.583473,532.567017 
	C89.645699,534.131348 84.873245,536.351929 79.336700,536.515381 
z"/>
<path fill="#62E2B9" opacity="1.000000" stroke="none" 
	d="
M38.348564,545.526123 
	C44.327061,541.527405 51.574070,541.874390 58.772018,540.622192 
	C52.797493,544.486267 45.468185,544.101624 38.348564,545.526123 
z"/>
<path fill="#62E2B9" opacity="1.000000" stroke="none" 
	d="
M62.394157,540.629517 
	C63.852024,538.551758 66.061447,538.173645 68.747917,538.647278 
	C67.390747,541.068542 65.091644,541.136597 62.394157,540.629517 
z"/>
<path fill="#62E2B9" opacity="1.000000" stroke="none" 
	d="
M72.847038,538.623901 
	C73.523338,537.175110 74.611885,535.969360 76.851562,536.506958 
	C76.472198,538.570435 75.058266,539.086853 72.847038,538.623901 
z"/>
<path fill="#23B883" opacity="1.000000" stroke="none" 
	d="
M360.915253,205.617920 
	C361.994110,205.342148 362.819427,205.179977 363.644714,205.180099 
	C419.754791,205.188187 475.864838,205.209305 532.429260,205.306519 
	C533.264038,205.625076 533.450989,205.971008 533.323730,206.715637 
	C476.099915,207.008560 418.996765,207.007355 361.421936,206.994675 
	C360.684723,206.632782 360.596985,206.238724 360.915253,205.617920 
z"/>
<path fill="#5BE0B5" opacity="1.000000" stroke="none" 
	d="
M533.489868,207.271179 
	C533.117065,206.650528 533.031128,206.291275 532.914429,205.657867 
	C537.325134,204.579956 541.794006,205.106659 546.705811,205.273804 
	C547.058105,206.030121 546.956848,206.621628 546.789551,207.502731 
	C542.407959,207.705750 538.092346,207.619171 533.489868,207.271179 
z"/>
<path fill="#5BE0B5" opacity="1.000000" stroke="none" 
	d="
M360.791718,205.280685 
	C361.117157,205.773209 361.065460,206.117859 360.982025,206.722839 
	C357.086853,209.003311 358.096588,212.690002 357.869629,216.378342 
	C357.526459,217.291428 357.065033,217.509872 356.117676,217.253418 
	C354.719482,214.169510 355.554688,211.363602 356.045013,208.522491 
	C356.483459,205.982056 357.890076,204.886292 360.791718,205.280685 
z"/>
<path fill="#24CD99" opacity="1.000000" stroke="none" 
	d="
M355.708099,217.321960 
	C356.229370,217.004990 356.697357,216.957397 357.511749,216.854416 
	C357.793243,219.134094 358.841278,221.663040 356.337646,223.820648 
	C355.978210,222.523041 355.949249,221.035645 355.787903,219.116959 
	C355.655243,218.320892 355.655029,217.956116 355.708099,217.321960 
z"/>
<path fill="#5BE0B5" opacity="1.000000" stroke="none" 
	d="
M550.313232,205.533478 
	C562.142883,191.867752 574.196777,178.407928 586.287048,164.980927 
	C589.268616,161.669708 592.368896,158.465424 595.748291,155.185806 
	C594.196045,161.314651 588.693420,164.684570 584.884949,169.315338 
	C578.185242,177.461609 570.511169,184.793732 564.110107,193.548584 
	C564.122742,193.881638 563.998962,194.005554 563.938660,194.069092 
	C563.736328,194.283997 563.594238,194.435394 563.183655,194.744446 
	C560.363281,197.092407 557.682983,199.161423 555.971802,202.526718 
	C554.059998,203.695587 553.466064,206.873764 550.313232,205.533478 
z"/>
<path fill="#5BE0B5" opacity="1.000000" stroke="none" 
	d="
M596.487061,155.028412 
	C596.414429,152.495544 598.472412,151.358063 600.552673,149.892502 
	C600.872986,152.588181 598.831299,153.774719 596.487061,155.028412 
z"/>
<path fill="#FCFEFD" opacity="1.000000" stroke="none" 
	d="
M963.929565,492.828430 
	C967.455750,494.801575 969.232239,497.435242 968.522522,501.182129 
	C967.961304,504.145508 966.309326,506.386139 963.186890,507.099762 
	C959.882019,507.855133 956.869080,507.370331 954.695679,504.476166 
	C952.710144,501.832153 952.354370,498.903687 954.139893,496.095856 
	C956.340027,492.635834 959.525024,491.317474 963.929565,492.828430 
z"/>
<path fill="#F2FBFA" opacity="1.000000" stroke="none" 
	d="
M1177.026123,493.845520 
	C1180.431152,496.957123 1181.025635,500.363922 1178.870483,503.920624 
	C1176.365967,508.053558 1172.083252,507.339447 1168.140747,507.271057 
	C1166.964966,507.250671 1166.376465,506.437531 1166.366577,505.313324 
	C1166.334595,501.671814 1166.331787,498.029816 1166.355591,494.388245 
	C1166.366943,492.660278 1167.468018,492.219482 1168.995483,492.187988 
	C1171.672241,492.132843 1174.291992,492.278168 1177.026123,493.845520 
z"/>
<path fill="#F2FBFA" opacity="1.000000" stroke="none" 
	d="
M788.303955,498.191711 
	C788.814087,495.670776 786.810303,492.505219 791.106750,492.157196 
	C796.449646,491.724457 801.049744,493.965546 801.839172,498.008453 
	C802.623413,502.025299 801.329041,505.287994 797.283264,506.799957 
	C790.364258,509.385681 788.303650,507.464142 788.303955,498.191711 
z"/>
<path fill="#F2FBFA" opacity="1.000000" stroke="none" 
	d="
M759.837402,497.820648 
	C757.911133,502.231995 754.275330,501.168427 751.091675,501.159485 
	C749.219727,501.154205 749.185608,499.528870 749.346313,498.226288 
	C749.591370,496.240997 748.194031,493.713257 750.676392,492.398804 
	C754.260315,490.500977 758.902039,493.118317 759.837402,497.820648 
z"/>
<path fill="#F2FBFA" opacity="1.000000" stroke="none" 
	d="
M1130.095215,501.250092 
	C1125.053345,499.948212 1127.301392,496.144135 1127.648438,493.888824 
	C1128.129883,490.759949 1131.436768,492.291412 1133.483887,492.406342 
	C1135.977905,492.546448 1137.930054,493.968414 1137.896851,496.806427 
	C1137.860596,499.905121 1135.834595,501.069824 1133.010620,501.204224 
	C1132.186401,501.243469 1131.360229,501.239594 1130.095215,501.250092 
z"/>
<path fill="#F2FBFA" opacity="1.000000" stroke="none" 
	d="
M890.007202,503.384094 
	C891.140625,501.677155 892.238525,500.012787 894.088745,501.432770 
	C895.623718,502.610779 897.874512,504.319611 897.840515,505.746399 
	C897.785095,508.074890 895.066772,508.055267 893.129700,507.780273 
	C890.958801,507.472046 889.397522,506.365143 890.007202,503.384094 
z"/>
<path fill="#F2FBFA" opacity="1.000000" stroke="none" 
	d="
M896.513123,492.432281 
	C897.648132,495.191254 896.348816,496.596710 894.145630,496.840271 
	C892.639587,497.006775 891.923950,495.448303 892.111572,494.073273 
	C892.460449,491.516205 894.330505,491.709290 896.513123,492.432281 
z"/>
<path fill="#F2FBFA" opacity="1.000000" stroke="none" 
	d="
M631.718140,495.451233 
	C631.235596,500.331451 626.372192,503.167145 622.572021,500.995605 
	C620.011841,499.532623 621.665344,496.799652 621.371704,494.658447 
	C621.157043,493.092529 622.042664,492.185913 623.707947,492.209045 
	C626.668091,492.250214 629.773560,491.886597 631.718140,495.451233 
z"/>
<path fill="#F2FBFA" opacity="1.000000" stroke="none" 
	d="
M1096.149414,502.553467 
	C1093.686401,502.685944 1091.588501,502.685944 1089.418701,502.685944 
	C1090.425171,498.053558 1090.570190,497.728546 1093.361694,493.880432 
	C1094.611328,496.804474 1096.697021,499.142212 1096.149414,502.553467 
z"/>
<path fill="#F2FBFA" opacity="1.000000" stroke="none" 
	d="
M714.249023,502.754181 
	C712.444031,502.654388 710.506165,503.087616 711.677979,500.490692 
	C712.656738,498.321777 713.593628,496.134003 714.941467,493.059418 
	C716.761047,496.574799 718.628052,499.065186 718.517761,501.924164 
	C718.459290,503.438507 716.000549,502.480682 714.249023,502.754181 
z"/>
<path fill="#27DE9E" opacity="1.000000" stroke="none" 
	d="
M563.102783,194.954254 
	C563.044495,194.637268 563.229553,194.419876 563.674316,194.191284 
	C563.848083,194.296814 563.817810,194.460999 563.726440,194.868683 
	C563.665405,195.112167 563.290466,195.006409 563.102783,194.954254 
z"/>
<path fill="#5BE0B5" opacity="1.000000" stroke="none" 
	d="
M255.923462,432.662598 
	C262.292694,423.038422 270.384583,414.587158 278.525940,405.849609 
	C277.729584,410.548798 273.625580,413.209076 270.864532,416.742218 
	C266.443512,422.399536 262.231415,428.374329 255.923462,432.662598 
z"/>
<path fill="#5BE0B5" opacity="1.000000" stroke="none" 
	d="
M279.688110,405.099731 
	C282.232605,399.262817 286.311768,394.192078 290.635193,389.005005 
	C289.546417,395.832916 284.653900,400.352875 279.688110,405.099731 
z"/>
<path fill="#5BE0B5" opacity="1.000000" stroke="none" 
	d="
M292.759247,387.104462 
	C291.787292,384.686768 293.376251,383.315277 295.365387,381.890137 
	C296.208710,382.122162 296.444550,382.586212 296.165222,383.538147 
	C294.971283,384.932159 294.012360,385.980621 292.759247,387.104462 
z"/>
<path fill="#3BDCA2" opacity="1.000000" stroke="none" 
	d="
M296.270111,383.909424 
	C295.917419,383.415649 295.904633,382.947601 295.792297,382.140015 
	C295.692719,381.800446 295.719452,381.838898 295.738434,381.829071 
	C296.375702,381.620361 296.692200,380.971252 297.616882,380.871948 
	C297.933716,381.718475 297.946838,382.469482 297.964813,383.595001 
	C297.516418,383.958069 297.063232,383.946625 296.270111,383.909424 
z"/>
<path fill="#3BDCA2" opacity="1.000000" stroke="none" 
	d="
M328.442749,325.746429 
	C328.855621,326.377930 328.905579,326.851227 328.964264,327.682404 
	C326.567444,333.833374 326.543427,340.794220 320.347961,344.947998 
	C319.991516,344.992157 319.941315,344.945465 319.916260,344.922058 
	C319.686615,344.637878 319.349243,344.320953 319.407379,344.070587 
	C320.980774,337.295074 323.507080,330.959259 328.442749,325.746429 
z"/>
<path fill="#5BE0B5" opacity="1.000000" stroke="none" 
	d="
M328.950531,325.683411 
	C324.551117,331.350250 322.223969,337.732330 319.918762,344.518555 
	C315.473511,348.323425 314.279724,353.875610 311.181793,358.190613 
	C309.217041,360.927277 308.244263,364.340393 305.583618,366.975281 
	C305.133392,362.319122 308.763184,359.258881 310.754333,355.586670 
	C315.900543,346.095764 321.306274,336.758575 325.353363,326.720886 
	C326.985626,322.672516 329.752747,321.077576 334.240356,321.096893 
	C368.370972,321.243927 402.505798,320.927917 436.631226,321.374786 
	C444.630524,321.479584 450.833008,319.756836 455.825562,313.289551 
	C454.973145,317.956055 451.389954,320.479370 447.407990,323.007751 
	C444.960297,324.505493 442.562653,323.971375 440.283936,323.973602 
	C405.925964,324.007202 371.567932,323.991394 337.209930,324.008728 
	C335.062103,324.009827 332.891541,323.761017 330.333313,324.565613 
	C329.629303,325.011169 329.362335,325.236664 328.950531,325.683411 
z"/>
<path fill="#3BDCA2" opacity="1.000000" stroke="none" 
	d="
M330.371582,324.844849 
	C330.821503,322.007782 333.191345,323.033539 334.981689,323.031128 
	C372.025940,322.981567 409.070282,323.001831 446.589264,323.034485 
	C446.412323,325.708466 444.241333,324.919464 442.567596,324.920380 
	C405.327362,324.941254 368.087128,324.918488 330.371582,324.844849 
z"/>
<path fill="#3BDCA2" opacity="1.000000" stroke="none" 
	d="
M461.382721,308.030029 
	C461.323273,307.482788 461.560944,306.916962 462.112152,306.242981 
	C462.425720,306.134796 462.834045,306.228973 463.027649,306.314514 
	C462.707458,306.937195 462.193634,307.474335 461.382721,308.030029 
z"/>
<path fill="#3BDCA2" opacity="1.000000" stroke="none" 
	d="
M457.184692,312.917419 
	C456.859283,311.941589 457.499969,311.379761 458.527832,310.770752 
	C458.998322,311.755493 458.777313,312.623535 457.184692,312.917419 
z"/>
<path fill="#5BE0B5" opacity="1.000000" stroke="none" 
	d="
M298.114685,380.704468 
	C297.397980,381.237671 296.875427,381.507904 296.055145,381.798676 
	C297.354919,376.457794 301.149719,372.445801 304.561066,367.889038 
	C305.651733,371.506195 301.502808,372.980743 300.972717,376.481079 
	C299.738922,377.809906 299.873535,379.733856 298.114685,380.704468 
z"/>
<path fill="#23B883" opacity="1.000000" stroke="none" 
	d="
M177.041794,205.843521 
	C191.048370,205.371964 205.039062,205.192780 219.029892,205.182831 
	C239.519501,205.168259 260.009186,205.274918 280.887024,205.508972 
	C281.442230,206.071808 281.558380,206.470428 281.352722,207.430450 
	C276.180176,206.861191 271.200653,207.029160 266.225555,207.029495 
	C236.781448,207.031494 207.337357,207.010803 177.419067,206.970810 
	C176.971909,206.699768 176.998947,206.455658 177.041794,205.843521 
z"/>
<path fill="#5BE0B5" opacity="1.000000" stroke="none" 
	d="
M283.200745,207.815948 
	C283.490509,208.780243 283.564117,209.520752 283.482117,210.608368 
	C283.072174,211.303665 282.725311,211.466415 282.076111,211.258453 
	C281.600739,210.245453 281.347595,209.442642 281.087891,208.308502 
	C281.081299,207.977173 281.198822,207.994598 281.257935,207.988876 
	C281.773010,207.426804 282.351898,207.394775 283.200745,207.815948 
z"/>
<path fill="#62E2B9" opacity="1.000000" stroke="none" 
	d="
M281.838287,211.426346 
	C282.183563,211.023010 282.513550,211.002625 283.085144,210.971313 
	C283.878448,212.112701 283.917267,213.165970 282.377686,214.010712 
	C281.966949,213.303680 281.894836,212.554062 281.838287,211.426346 
z"/>
<path fill="#5BE0B5" opacity="1.000000" stroke="none" 
	d="
M280.711700,223.101196 
	C281.410767,223.935760 281.167633,224.691864 280.297546,225.505249 
	C279.130676,224.696213 279.043213,223.842712 280.711700,223.101196 
z"/>
<path fill="#62E2B9" opacity="1.000000" stroke="none" 
	d="
M281.245300,218.839432 
	C281.800415,219.041245 281.880219,219.342529 281.538513,219.856873 
	C280.433807,219.876694 280.111053,219.563217 281.245300,218.839432 
z"/>
<path fill="#23D198" opacity="1.000000" stroke="none" 
	d="
M352.390686,247.955887 
	C352.222778,246.350128 351.328217,244.409225 353.469421,242.928253 
	C353.750916,244.540375 354.840912,246.530136 352.390686,247.955887 
z"/>
<path fill="#24D397" opacity="1.000000" stroke="none" 
	d="
M350.331604,259.987976 
	C350.147308,259.162079 350.288147,258.277588 350.684021,257.168762 
	C352.221649,258.069611 352.392578,259.089691 350.331604,259.987976 
z"/>
<path fill="#62E2B9" opacity="1.000000" stroke="none" 
	d="
M283.528473,207.724823 
	C282.889984,208.022156 282.363129,208.004578 281.576660,207.985077 
	C281.257629,207.473145 281.198181,206.963120 281.206970,206.070587 
	C282.481964,205.687241 283.525421,205.910721 283.528473,207.724823 
z"/>
</svg>